<svg id="Layer_1" data-name="Layer 1" xmlns="http://www.w3.org/2000/svg" viewBox="0 0 138.27 188.37"><defs><style>.cls-1{fill:#24549d;}.cls-2{fill:#3061a7;}.cls-3{fill:#5895ce;}.cls-4{fill:#3d7cbe;}.cls-5{fill:#3261a8;}.cls-6{fill:#25549d;}.cls-7{fill:#407bba;}.cls-8{fill:#417bbb;}.cls-9{fill:#1f5793;}.cls-10{fill:#2654a1;}.cls-11{fill:#2553a0;}.cls-12{fill:#1c5692;}.cls-13{fill:#2c549d;}.cls-14{fill:#3963a0;}.cls-15{fill:#5c95ca;}.cls-16{fill:#3561a1;}.cls-17{fill:#1d5490;}.cls-18{fill:#6195c9;}.cls-19{fill:#23579c;}.cls-20{fill:#6e7eaa;}.cls-21{fill:#2e63a1;}.cls-22{fill:#205598;}.cls-23{fill:#2952a1;}.cls-24{fill:#24549b;}.cls-25{fill:#1f5697;}.cls-26{fill:#1a4b99;}</style></defs><title>fb</title><path class="cls-1" d="M101,42.53C94,43,86.88,43,79.88,43.9c-4.24.52-7.37,3.35-9.79,7.06C65.43,58.11,65.74,66.05,65.78,74c0,6.48,0,6.48-6.76,6.48-3,0-6,0-9,0-4.21-2.23-7.2-7.1-13-5.9A24,24,0,0,0,27.16,60c-3.73-2.6-3.08-7.19-.94-10.37,5.48-8.2,4.81-17.26,4.71-26.29,0-.57-1.53-1.13-2.35-1.69a17,17,0,0,1,12.3-11l18.16.1,4,1c3.65,3.27,7.87,6.1,10.8,9.91C77.92,27,82.77,28.06,89,27.32a87.86,87.86,0,0,1,17.53-.52c4.49.36,7.14,4.26,7.51,8.87l-6,1c-6-.22-12.06-.46-18.09-.59-.29,0-.61,1-.91,1.59h0l-6,0c-2.34,0-4.68,0-7,0l1.54-1.21-.33-.33L76,37.67c-4.3,3.53-7.65-.88-11.42-2.15.56,3.48,1,6.18,1.49,9.25,2.45-1.41,4.65-3.53,7.13-3.94C78.43,40,83.76,40,89,39.66c3.69.43,7.39.82,11.06,1.35C100.47,41.07,100.73,42,101,42.53Z"/><path class="cls-2" d="M28.58,21.64c.82.56,2.34,1.12,2.35,1.69.1,9,.77,18.09-4.71,26.29-2.14,3.18-2.79,7.77.94,10.37a24,24,0,0,1,9.9,14.57c2.26,5.73,4.24,11.58,6.93,17.1,1,2,3.63,3.24,5.52,4.83l1.56,3.15c1.67,1,3.38,1.94,5,3,3,1.91,5.88,3.88,8.82,5.82a2.86,2.86,0,0,0,.77.1l-.06,11.79a27,27,0,0,1-5-1.92C47.36,110,34.2,101.43,20.9,93.05c-4.42-2.78-9.13-5.12-13.71-7.67L7,83.74l2-9.41L7.4,74,5,83.51,4,83.6l0-6c2.86-8.39,5.12-17,8.73-25.11C17.48,41.92,23.26,31.88,28.58,21.64Z"/><path class="cls-1" d="M124.37,107.6l-1.1,1.93c-2.59,0-1.55,1.1-.65,2.16l-.15.21-6-2.46c-.94,3.39-1.77,6.4-2.72,9.8-2.72-.06-5.2.37-6.44,4.41-1,3.2-5.65,4.53-6.35,8.56-.07.4-1.12.93-1.68.9-3.41-.2-6.82-.54-10.37-.85.73-4.39,1.9-6.32,5.82-5,1.08.36,2.67-.83,4-1.3l-.45-1.25-8-.61c-.09-5.21-2.15-10.45,3.48-14,.68-.43.83-1.71,1.22-2.59l4-3,2-2,0-3,.07,0H114c.15,1.19.3,2.39.49,3.92,3-2.84,3-2.84-.49-3.93l-2-4c1.79-6.75,1.17-13.73-1.36-15.42-.53,1.49-1.07,3-1.6,4.46l-1-1a26.9,26.9,0,0,1-.34-4.27c.28-3.82-.82-4.54-4.85-4.21-4.37.37-8.8.09-12.33.09l-4.31-5.55c-.84-6.49.47-8.08,6.8-8.28,11.22-.35,11.21-.35,11.63-11.22a8.24,8.24,0,0,1,.28-1.45l4.12-1,3.32,3.74L115,48.63a61.65,61.65,0,0,0-.8,8.31c.07,2.29-1.95,5.43,2,6.69l-.1,1.81c-.68,2.36-1.09,4.36.61,6.86,2,2.93,4,6.26,1.94,10.4-1,2,.46,4,3,3.71,1.63-.2,3.14-1.32,4.71-2q.8,7.05,1.6,14.11l-.87,1.09,0,0H119C121.19,102.82,122.78,105.21,124.37,107.6ZM101.66,119l.12,1.28c3.24-.49,5.53-3.08,7.89-5.21.56-.5.11-2.09.13-3.18-1.12.31-2.6.28-3.3,1A72.14,72.14,0,0,0,101.66,119Zm-1.8-10.19c-.74,1.12-1.66,1.92-1.52,2.46.17.71,1.17,1.21,1.82,1.81.57-.68,1.51-1.31,1.59-2C101.82,110.53,100.77,109.86,99.86,108.84Z"/><path class="cls-3" d="M4,83.6l1-.09L7,83.74l.23,1.64c2.3,7.91,4.38,15.88,6.93,23.71,3.74,11.48,11.56,18,23.86,19.45,9.16,1.09,18.2,3.1,27.29,4.71l.56,7.22c-.64.27-1,.57-1.21.48-9.07-3.71-9.81-3.47-15.05,5-5.8,9.37-13.13,11.44-20.77,3.88C15.84,137,4.1,122.92.55,104.09c-1.32-7-.15-13.82,2.34-20.43Z"/><path class="cls-4" d="M65.27,133.25c-9.09-1.61-18.13-3.62-27.29-4.71-12.3-1.47-20.12-8-23.86-19.45-2.55-7.83-4.63-15.8-6.93-23.71,4.58,2.55,9.29,4.89,13.71,7.67,13.3,8.38,26.46,17,39.74,25.37a27,27,0,0,0,5,1.92Q65.44,126.79,65.27,133.25Z"/><path class="cls-2" d="M116.19,63.63c-3.9-1.26-1.88-4.4-2-6.69a61.65,61.65,0,0,1,.8-8.31q0-5.49,0-11c-.32-.66-.65-1.32-1-2-.37-4.61-3-8.51-7.51-8.87A87.86,87.86,0,0,0,89,27.32c-6.24.74-11.09-.29-15.18-5.64C70.9,17.87,66.68,15,63,11.77c.5-4.22,3.91-5.94,8-4.41,3.62,1.34,7.48,3.32,11.1,3.09C86.83,10.16,91.38,8,95,6.85c2.79.88,5,1.49,7.13,2.3.43.17.59,1.06.88,1.61A78.14,78.14,0,0,0,107.12,20c.48.83,3.23,1.36,4.06.78,2.53-1.77,4.27-.78,6.16.75h0c.39,1,.79,1.95,1.19,2.93h-.13c.2,2.61.47,5.22.6,7.84.16,3.39.26,6.79.27,10.18s-.12,6.75-.18,10.12Z"/><path class="cls-5" d="M103,10.76c-.29-.55-.45-1.44-.88-1.61C100,8.34,97.82,7.73,95,6.85c-3.65,1.1-8.2,3.31-12.87,3.6-3.62.23-7.48-1.75-11.1-3.09-4.12-1.53-7.53.19-8,4.41l-4-1,1.84-5.2-.07.13,1.1-1.34L74.19,2.8l1.39-.25c.52,3.61,3.18,3.36,5.79,3.21l7.14-.4L88.44,4.2l-6-1,.29-1.77L99.58,2.63a49.78,49.78,0,0,1,14.59,12.82c-4.57,2.35-5.87,1.91-7.87-2C105.71,12.29,104.15,11.64,103,10.76Z"/><path class="cls-6" d="M95,107.45c-.39.88-.54,2.16-1.22,2.59-5.63,3.57-3.57,8.81-3.48,14l8,.61.45,1.25c-1.36.47-3,1.66-4,1.3-3.92-1.28-5.09.65-5.82,5,3.55.31,7,.65,10.37.85.56,0,1.61-.5,1.68-.9.7-4,5.37-5.36,6.35-8.56,1.24-4,3.72-4.47,6.44-4.41,1-3.4,1.78-6.41,2.72-9.8l6,2.46-3.29,4.66-.22-.19-1.76-1.74a10.29,10.29,0,0,0-.92.93,24.1,24.1,0,0,0,1.71,1.79l.29.31c-2.64,3-5.27,6.06-7.93,9.07-2.81,3.19-5.65,6.35-8.48,9.53L88.13,137.5a35.76,35.76,0,0,1-1-5.73C87,125.33,87,118.89,87,112.46Z"/><path class="cls-7" d="M65.17,178.49c0,5.84-1.68,9.27-4.87,9.83s-7.3-3.2-8.76-8.06c-.19-.63-.39-1.26-.53-1.91-1.12-5.39.67-9.46,4.44-10.11,4.57-.79,9.37,3.53,9.71,8.76C65.2,177.49,65.17,178,65.17,178.49Z"/><path class="cls-8" d="M138.27,134.09c0,5-2.65,7.76-7.57,7.86-5.46.11-8.79-2.58-8.9-7.18-.12-4.76,4.16-9.33,8.83-9.45C134,125.24,138.24,130.15,138.27,134.09Z"/><path class="cls-9" d="M49.51,96.49C47.62,94.9,45,93.69,44,91.66c-2.69-5.52-4.67-11.37-6.93-17.1,5.78-1.2,8.77,3.67,13,5.9l0,.1-.45,6.76,0,5.3c-.08.07-.24.16-.23.21a3.76,3.76,0,0,0,.23.55Z"/><path class="cls-10" d="M106,99.48h-3l-1-2,1.89-16.66a6.17,6.17,0,0,0-.27-1.32c-5.57,0-11.14,0-16.72.08-.24-3.34-.48-6.67-.73-10l4.31,5.55c3.53,0,8,.28,12.33-.09,4-.33,5.13.39,4.85,4.21a26.9,26.9,0,0,0,.34,4.27c-.45.74-1.24,1.45-1.28,2.21-.11,2.17.25,4.36.14,6.53C106.77,94.66,106.33,97.07,106,99.48Z"/><path class="cls-11" d="M114.05,35.67l1,2-3.81,2.72c4,3.84-.37,5.17-2.18,7.27l-4.12,1V43.1L101,42.53c-.31-.53-.57-1.46-1-1.52-3.67-.53-7.37-.92-11.06-1.35v-2h0c2.15,0,4.3.1,6.44,0,4.19-.25,8.37-.64,12.56-1Z"/><path class="cls-12" d="M95,107.45l-8,5-.75-.06a1.24,1.24,0,0,0-.7-.17l0-11.56,1.53-1.17h14l0,3-2,2Z"/><path class="cls-13" d="M126.36,84.38c-1.57.71-3.08,1.83-4.71,2-2.55.32-4-1.69-3-3.71,2-4.14,0-7.47-1.94-10.4-1.7-2.5-1.29-4.5-.61-6.86A41.73,41.73,0,0,1,126.36,84.38Z"/><path class="cls-14" d="M99.58,2.63,82.76,1.46l-.29,1.77,6,1,.07,1.16-7.14.4c-2.61.15-5.27.4-5.79-3.21l-1.39.25C78.56,1.8,82.93.06,87.32,0,91.39,0,95.49,1.68,99.58,2.63Z"/><path class="cls-15" d="M88.13,137.5l13.74-1.24-14.71,7.21a3.86,3.86,0,0,0-.68,0l-.57-4.09,1.11-.9Z"/><path class="cls-2" d="M60.88,5.55,59,10.75l-18.16-.1c3.93-1.47,7.79-3.2,11.82-4.32C55.3,5.61,58.15,5.78,60.88,5.55Z"/><path class="cls-16" d="M103,10.76c1.11.88,2.67,1.53,3.26,2.67,2,3.93,3.3,4.37,7.87,2l3.17,6.09c-1.89-1.53-3.63-2.52-6.16-.75-.83.58-3.58.05-4.06-.78A78.14,78.14,0,0,1,103,10.76Z"/><path class="cls-17" d="M64.9,108.45c-2.94-1.94-5.86-3.91-8.82-5.82-1.63-1-3.34-2-5-3l14.11.08-.06,7.75Z"/><path class="cls-16" d="M119,52.62c.06-3.37.19-6.75.18-10.12s-.11-6.79-.27-10.18c-.13-2.62-.4-5.23-.6-7.84C121.85,33.78,121.12,43.18,119,52.62Z"/><path class="cls-18" d="M8.86,147.93l4.8,5.33c-1,.86-2.59,2.65-3,2.43a37.18,37.18,0,0,1-5.1-4.17Z"/><path class="cls-6" d="M124.37,107.6c-1.59-2.39-3.18-4.78-5.35-8.06h8.12C126.22,102.23,125.29,104.91,124.37,107.6Z"/><path class="cls-19" d="M86.94,79.58c5.58,0,11.15-.1,16.72-.08a6.17,6.17,0,0,1,.27,1.32c-4.31-.1-8.62-.14-12.93-.34A24.64,24.64,0,0,1,86.94,79.58Z"/><path class="cls-20" d="M87,138.48l-1.11.9-.33-27.15a1.24,1.24,0,0,1,.7.17c-.06,5.47-.23,10.94-.13,16.41C86.22,132,86.72,135.26,87,138.48Z"/><path class="cls-4" d="M65.12,107.47l.06-7.75.6,7.71C65.56,107.43,65.34,107.45,65.12,107.47Z"/><path class="cls-20" d="M99.06,99.51h0Z"/><path class="cls-2" d="M49.54,87.32,50,80.56Z"/><path class="cls-21" d="M4,83.6l-1.13.06L4,77.55Z"/><path class="cls-16" d="M118.48,24.48c-.4-1-.8-1.95-1.19-2.93C117.68,22.53,118.08,23.5,118.48,24.48Z"/><path class="cls-6" d="M102,97.48l1,2h-1.91Z"/><path class="cls-6" d="M122.62,111.69c-.9-1.06-1.94-2.16.65-2.16Z"/><path class="cls-20" d="M87.06,99.5l-1.53,1.17Z"/><path class="cls-20" d="M86.48,143.47a3.86,3.86,0,0,1,.68,0l-1.1.31Z"/><path class="cls-2" d="M61.91,4.34l-1.1,1.34Z"/><path class="cls-2" d="M49.52,93.38a3.76,3.76,0,0,1-.23-.55s.15-.14.23-.21A.48.48,0,0,1,49.52,93.38Z"/><path class="cls-6" d="M127.09,99.58l.87-1.09Z"/><path class="cls-3" d="M65.12,107.47c.22,0,.44,0,.66,0,0,.37-.08.74-.11,1.12a2.86,2.86,0,0,1-.77-.1C65,108.12,65.05,107.8,65.12,107.47Z"/><path class="cls-6" d="M119.18,116.56l-.9,1.1-.29-.31,1-1Z"/><path class="cls-22" d="M89,37.67v2c-5.27.34-10.6.3-15.79,1.17-2.48.41-4.68,2.53-7.13,3.94-.49-3.07-.93-5.77-1.49-9.25,3.77,1.27,7.12,5.68,11.42,2.15h0c2.33,0,4.67,0,7,0Z"/><path class="cls-22" d="M108,36.67c-4.19.33-8.37.72-12.56,1-2.14.13-4.29,0-6.44,0,.3-.55.62-1.6.91-1.59C96,36.21,102,36.45,108,36.67Z"/><path class="cls-22" d="M76,37.67l1.21-1.54.33.33L76,37.67Z"/><path class="cls-21" d="M7,83.74,5,83.51,7.4,74l1.6.32Z"/><path class="cls-23" d="M112,99.48h-3q0-7.49,0-15c.53-1.49,1.07-3,1.6-4.46,2.53,1.69,3.15,8.67,1.36,15.42Z"/><path class="cls-24" d="M109,47.64c1.81-2.1,6.22-3.43,2.18-7.27L115,37.65q0,5.49,0,11l-2.68,2.75Z"/><path class="cls-6" d="M101.66,119a72.14,72.14,0,0,1,4.84-6.11c.7-.72,2.18-.69,3.3-1,0,1.09.43,2.68-.13,3.18-2.36,2.13-4.65,4.72-7.89,5.21Z"/><path class="cls-25" d="M109.08,84.53q0,7.47,0,15h-3c.3-2.41.74-4.82.87-7.23.11-2.17-.25-4.36-.14-6.53,0-.76.83-1.47,1.28-2.21Z"/><path class="cls-6" d="M99.86,108.84c.91,1,2,1.69,1.89,2.24-.08.72-1,1.35-1.59,2-.65-.6-1.65-1.1-1.82-1.81C98.2,110.76,99.12,110,99.86,108.84Z"/><path class="cls-6" d="M114,99.47c3.5,1.09,3.5,1.09.49,3.93-.19-1.53-.34-2.73-.49-3.92Z"/><path class="cls-6" d="M112,99.48v-4l2,4h-2Z"/><path class="cls-6" d="M99,104.45l2-2Z"/><path class="cls-26" d="M87,138.48c-.3-3.22-.8-6.44-.87-9.67-.1-5.47.07-10.94.13-16.41l.75.06c0,6.43-.07,12.87.06,19.31a35.76,35.76,0,0,0,1,5.73Z"/><path class="cls-1" d="M119,116.37l-1,1a24.1,24.1,0,0,1-1.71-1.79,10.29,10.29,0,0,1,.92-.93Z"/></svg>