<svg id="Layer_1" data-name="Layer 1" xmlns="http://www.w3.org/2000/svg" viewBox="0 0 166.24 151.35"><defs><style>.cls-1{fill:#f9ac45;}.cls-2{fill:#f48259;}.cls-3{fill:#ee4778;}.cls-4{fill:#e9318d;}.cls-5{fill:#c13c95;}.cls-6{fill:#ae3e96;}.cls-7{fill:#ed4977;}.cls-8{fill:#ed4a78;}.cls-9{fill:#a33f97;}.cls-10{fill:#c43b94;}.cls-11{fill:#bc2d8e;}.cls-12{fill:#f38150;}.cls-13{fill:#f47941;}.cls-14{fill:#ee6066;}.cls-15{fill:#ef496f;}.cls-16{fill:#ed236f;}.cls-17{fill:#eb3c85;}.cls-18{fill:#e92f8e;}.cls-19{fill:#cd3693;}.cls-20{fill:#c73794;}.cls-21{fill:#f3835b;}.cls-22{fill:#e7378d;}.cls-23{fill:#c83883;}.cls-24{fill:#ee2969;}.cls-25{fill:#dc396f;}.cls-26{fill:#e25c84;}.cls-27{fill:#ea4e91;}</style></defs><title>ig</title><path class="cls-1" d="M49.85,145.11c-2.64.89-5.65,1.25-7.84,2.77-10.36,7.23-20.19,2.21-25.85-6.52-2.08-3.2-4-5.93-8.35-6-.92,0-2.38-2.17-2.57-3.48-.26-1.7.51-3.55.84-5.34,2.28-2.62,5.17-4.94,6.68-7.94,1.73-3.44,2.21-7.5,3.28-11.27,1.45-5.07,2.91-10.15,8.17-12.8.51,1.68.67,3.59,1.58,5,7.05,10.94,15.37,20,29.92,19.82,6.29-.09,12.58.08,18.87.13-1.83,3.57-3.51,7.21-5.52,10.67-1.47,2.52-3.37,4.8-5.07,7.19h0l-3.79,2.18-.05,0-2.4,1.6Z"/><path class="cls-2" d="M24.21,94.54c-5.26,2.65-6.72,7.73-8.17,12.8-1.07,3.77-1.55,7.83-3.28,11.27-1.51,3-4.4,5.32-6.68,7.94L1,106.14C.7,104,.38,101.77.07,99.58,0,97.27,0,95,0,92.66c0-1.68,0-3.37.05-5s.06-3.32.08-5c.13-.09.37-.21.36-.26a4.32,4.32,0,0,0-.34-.68Q1.58,71.15,3,60.61L9.71,62,8,54.71c.08-.66.15-1.33.22-2l15.9-3Q24.16,72.11,24.21,94.54Z"/><path class="cls-3" d="M154.29,89.7c.74,4.82-3.49,6.82-5.69,10l-3.61.67c.1-1.66.21-3.32.32-5.15-2,1.63-3.56,3.24-5.42,4.26a6.21,6.21,0,0,0-.8,10.11c-.63,2-.65,4.73-2,5.78-5.22,4.06-11.56,5.21-18.07,5.34a18.42,18.42,0,0,1-3.5-.59c.36-1.28.41-2.8,1.17-3.77,1.36-1.76,2.33-3-.68-3.88A39,39,0,0,0,127.5,93.55C128,92,129,90.41,129,88.84c.13-12.67.07-25.34.07-38,.66-.61,1.75-1.13,1.9-1.85.81-4,3.38-3.8,5.87-2.16,1.67,1.09,3.46,3,3.85,4.79.62,2.85,2.12,3.36,4.48,3.28q0,.4,0,.81c0,1-.09,2.07-.13,3.1,2.9,5-1.3,10.37,1.7,15.66.53-1.42,1.07-2.84,1.61-4.26l1.23.29-1.08,19L150.9,91,153,86.54Z"/><path class="cls-4" d="M116,112.44c3,.83,2,2.12.68,3.88-.76,1-.81,2.49-1.17,3.77a18.42,18.42,0,0,0,3.5.59c6.51-.13,12.85-1.28,18.07-5.34,1.35-1,1.37-3.81,2-5.78.19-3-.78-6.73,4.06-7.14a16.82,16.82,0,0,0-1.28,4,36.94,36.94,0,0,0,.18,7.87,63.85,63.85,0,0,0,2.08,7.69c-15.39,3.83-30.79,7.61-46.17,11.51-2.66.68-5.21,1.82-7.81,2.74l-.06-.86,1.26-5.53.57-1.41-11.86-3-3.9-3.94,1.06-1.19c4.14,0,8.28-.14,12.41,0A42,42,0,0,0,116,112.44Z"/><path class="cls-5" d="M120,1.07c3,.55,6,1,9,1.76.52.13.76,1.43,1.13,2.18-3.62.3-3.77,2.18-1.84,4.53s3,4.35-.25,6.34c-.71-2.56-.37-6.62-4.64-5.44s-6.48-.27-8.07-3.94c-.4-.91-1.37-1.58-2.44-2.76a28,28,0,0,1-1.66,4.63c-1.23,2.1-2.46,2.16-3.17-.44-.74-.58-1.48-1.66-2.21-1.65-13.26.14-26.53.41-39.79.65h-6l-6,2L39.15,9,29.07,11.9h0c.06-3.5-1.64-3.28-4-1.93s-4.68,2.61-7,3.91l-2-1L15.14,12,15,11.83l13-6.94c8.56.2,17.11.65,25.66.44,2.14,0,4.24-2.2,6.36-3.38l4-1.91,3,0c0,.32,0,.64,0,1,4.27,4.23,9.38,1.26,14.1,1.56.27,0,.61-1,.91-1.57h9c2.71,2.86,11.28,2.86,14,0Z"/><path class="cls-6" d="M154.29,89.7,153,86.54c0-1-.09-1.94-.13-2.92l-.15-6.85c-.27-1.69-.55-3.39-.82-5.08-.25-1.4-.5-2.8-.74-4.2l-4.86-9-1.12-2.8q0-.41,0-.81,2-4.14,4-8.28c4,4.24,8.43,8.18,11.94,12.8,7.72,10.18,6.6,18.78-3,27.27C157,87.77,155.59,88.7,154.29,89.7Z"/><path class="cls-7" d="M76.16,121.56l3.9,3.94c3.92,2.21,9.24,3.16,8.68,9.48,0,.11.88.29,1.35.44l.06.86c-7.65,3.45-15.21,7.09-23,10.28-5.88,2.41-11.87,2.65-17.34-1.45l7.91-3.94,2.4-1.6.05,0L64,137.36h0c2.25-1.56,5.13-2.68,6.61-4.78C73,129.25,74.36,125.27,76.16,121.56Z"/><path class="cls-4" d="M149.21,46.61q-2,4.14-4,8.28c-2.36.08-3.86-.43-4.48-3.28-.39-1.82-2.18-3.7-3.85-4.79-2.49-1.64-5.06-1.88-5.87,2.16-.15.72-1.24,1.24-1.9,1.85l-1.13-1.08a40.61,40.61,0,0,0-9.87-19.87l6-3.09,4.09-2.05L137,32.9q1.81,3,3.62,5.91Z"/><path class="cls-8" d="M24.1,49.67l-15.9,3c1.14-3.56,2.31-7.12,3.41-10.7.53-1.7.92-3.45,1.37-5.17l5-4a11.18,11.18,0,0,0,2.57-1.18c6-5.05,13.12-7.13,20.8-7.67C32.31,30.38,25.92,38.5,24.1,49.67Z"/><path class="cls-9" d="M137,32.9l-8.82-8.16-.15-8.86c3.23-2,2.15-4,.25-6.34S126.52,5.31,130.14,5c2.8,4.22,6.85,5.69,11.78,6a17.21,17.21,0,0,1,6.84,2.28c2.8,1.47,3,3.59.47,5.72a21.72,21.72,0,0,1-2.38.46c-10.16.86-10.09.84-8,10.32C139,30.62,137.67,31.84,137,32.9Z"/><path class="cls-10" d="M18,32.89l-5,4c-1.52-4.11-3.66-8.11-4.41-12.35-1-5.42,1.53-9.84,6.44-12.67l.13.21L15,13.68l1.09-.78,2,1c.58,2.3.63,2.38,3,1.44,2.7-1.06,5.33-2.28,8-3.43h0l0,1C23.56,18.57,19.29,24.91,18,32.89Z"/><path class="cls-10" d="M137,32.9c.65-1.06,2-2.28,1.82-3.15-2.08-9.48-2.15-9.46,8-10.32a21.72,21.72,0,0,0,2.38-.46q2.16,4.39,4.31,8.79l-5.52-3-.69.9,2.29,3.28-2.22,2,1.11,1.34,5.07-4.46c1.89,3.8.26,7.14-4.18,8.11-2.41.53-4.94.53-7.36,1-.57.11-.94,1.24-1.39,1.9Z"/><path class="cls-6" d="M144.13,122a63.85,63.85,0,0,1-2.08-7.69,36.94,36.94,0,0,1-.18-7.87,16.61,16.61,0,0,1,1.28-4l1.84-2.09,3.61-.67c.81,3.3,1.27,6.73,2.49,9.86C154.1,117.2,152.52,120.27,144.13,122Z"/><path class="cls-10" d="M60.07,2C58,3.13,55.85,5.28,53.71,5.33c-8.55.21-17.1-.24-25.66-.44l20.1-3.71Z"/><path class="cls-11" d="M120,1.07l-15-.11h-38c0-.32,0-.64,0-1Z"/><path class="cls-12" d="M8,54.71,9.71,62,3,60.61C4.67,58.64,6.33,56.68,8,54.71Z"/><path class="cls-11" d="M60.07,2,48.15,1.18,64.05,0Z"/><path class="cls-13" d="M.07,99.58c.31,2.19.63,4.37.94,6.56C.7,104,.38,101.77.07,99.58Z"/><path class="cls-13" d="M.05,87.61c0,1.68,0,3.37,0,5C0,91,0,89.29.05,87.61Z"/><path class="cls-13" d="M.15,81.68a4.32,4.32,0,0,1,.34.68s-.23.17-.36.26A1.11,1.11,0,0,1,.15,81.68Z"/><path class="cls-14" d="M74.58,119.5l2.64.87-1.06,1.19c-1.8,3.71-3.21,7.69-5.56,11-1.48,2.1-4.36,3.22-6.61,4.78,1.7-2.39,3.6-4.67,5.07-7.19C71.07,126.71,72.75,123.07,74.58,119.5Z"/><path class="cls-14" d="M64,137.36l-3.79,2.18Z"/><path class="cls-14" d="M60.16,139.57l-2.4,1.6Z"/><path class="cls-15" d="M152.89,83.62c0,1,.09,1.95.13,2.92Q152,88.75,150.9,91l-2.37-1.49,1.08-19-1.23-.29c-.54,1.42-1.08,2.84-1.61,4.26-3-5.29,1.2-10.69-1.7-15.66l1.25-.3,4.85,9,.75,4.2c.27,1.69.55,3.39.82,5.08Z"/><path class="cls-15" d="M145,100.34l-1.84,2.09c-4.84.4-3.87,4.09-4.06,7.13a6.21,6.21,0,0,1,.8-10.11c1.86-1,3.39-2.63,5.42-4.26C145.2,97,145.09,98.68,145,100.34Z"/><path class="cls-16" d="M127.5,93.55q.23-21.9.44-43.8l1.13,1.08c0,12.67.06,25.34-.07,38C129,90.41,128,92,127.5,93.55Z"/><path class="cls-4" d="M146.32,58.5l-1.25.3c0-1,.08-2.06.13-3.1C145.57,56.64,146,57.57,146.32,58.5Z"/><path class="cls-17" d="M90.09,135.42c-.47-.15-1.36-.33-1.35-.44.56-6.32-4.76-7.27-8.68-9.48l11.86,3-.57,1.41Z"/><path class="cls-18" d="M51.22,21.43,41.36,24c-7.68.54-14.78,2.62-20.8,7.67A11.18,11.18,0,0,1,18,32.89c1.3-8,5.57-14.32,11.11-20l10-4L54.07,8.9l6,0h6l39,.92L111.74,25,101,21.44C99.71,20.92,98.48,20,97.23,20q-21.14-.16-42.29,0C53.7,20,52.46,20.92,51.22,21.43Z"/><path class="cls-19" d="M111.74,25,105.08,9.87l3-1.94c.71,2.6,1.94,2.54,3.17.44a28,28,0,0,0,1.66-4.63c1.07,1.18,2,1.85,2.44,2.76,1.59,3.67,3.74,5.14,8.07,3.94s3.93,2.88,4.64,5.44l.15,8.86-4.09,2.05-6,3.09Z"/><path class="cls-20" d="M108.07,7.93l-3,1.94L66.08,9c0-.67,0-1.35,0-2,13.26-.24,26.53-.51,39.79-.65C106.59,6.27,107.33,7.35,108.07,7.93Z"/><path class="cls-19" d="M29.08,11.91c-2.67,1.15-5.3,2.37-8,3.43-2.38.94-2.43.86-3-1.44,2.35-1.31,4.71-2.58,7-3.92S29.14,8.41,29.08,11.91Z"/><path class="cls-20" d="M67.07,1h15c-.3.55-.64,1.59-.91,1.57C76.45,2.22,71.34,5.19,67.07,1Z"/><path class="cls-20" d="M91.07,1h14C102.35,3.81,93.78,3.81,91.07,1Z"/><path class="cls-19" d="M39.15,9l-10,4,0-1Z"/><path class="cls-19" d="M66.07,6.93c0,.67,0,1.35,0,2h-6c0-.67,0-1.35,0-2Z"/><path class="cls-20" d="M60.08,6.93c0,.67,0,1.35,0,2l-6,0Z"/><path class="cls-19" d="M16.08,12.9,15,13.68,15.14,12Z"/><path class="cls-3" d="M152.89,83.62l-.15-6.85Z"/><path class="cls-3" d="M151.92,71.69l-.75-4.2Z"/><path class="cls-5" d="M153.58,27.78l-5.07,4.46L147.4,30.9l2.22-2-2.29-3.28.69-.9,5.52,3Z"/><path class="cls-8" d="M32.06,49.77c1.13-10.79,8.37-18.43,19.86-21l2.2.13c9.78.14,19.56.29,29.34.4.17,0,.35-.51.52-.78L86,28.4l4,1.34,3.07,1.11,3.9,1.94,1,.08L101.41,37c-1.06,2.41-3,4.9-2.86,7.21.14,1.64,3,4,5,4.34,4,.7,5.71-2.44,6.58-5.91,1,.13,2.43-.11,2.8.43,2.18,3.11,4.11,6.4,6.12,9.64,0,10.9,0,21.8.06,32.7a30,30,0,0,0,.91,5.17,23,23,0,0,1-16.59,20.09l-23.33-.09a26.54,26.54,0,0,1,.43-4.29c.73-2.81,1.68-5.58,2.53-8.36a17.48,17.48,0,0,1,1.77-.92c12.7-4.76,19.55-14.49,19.43-27.6-.12-11.8-7.86-22.18-19.5-26.13-11.33-3.85-23.29,0-31.58,10.08a22,22,0,0,1-2.86,2.47C45.82,49.15,39,49.29,32.06,49.77Z"/><path class="cls-21" d="M83.07,98c-.85,2.78-1.8,5.55-2.53,8.36a26.54,26.54,0,0,0-.43,4.29c-.1.54-.2,1.08-.29,1.62-9.44-.21-19,.29-28.3-.82C41.06,110.17,34,102.13,32.16,91.58q.09-18.28.15-36.58c0-.11-.23-.22-.35-.33,0-1.63.07-3.27.1-4.9,6.94-.48,13.76-.62,18.27,6.1-.5,2.09-1.39,4.17-1.42,6.27-.09,5.88-1.12,12.17.57,17.57C52.81,90.31,63.47,101.21,83.07,98Z"/><path class="cls-22" d="M93.15,30.85l-3.07-1.11,2.84-1.37c13.44-1,25.72,8.49,27,20.51l-.87,3.87c-2-3.24-3.94-6.53-6.12-9.64-.37-.54-1.84-.3-2.8-.42-1-3.6-3.17-5.74-7.07-5.82l-5-4-1-.08Z"/><path class="cls-23" d="M51.22,21.43C52.46,20.92,53.7,20,54.94,20q21.15-.16,42.29,0c1.25,0,2.48,1,3.72,1.49Z"/><path class="cls-24" d="M84,28.55c-.17.27-.35.78-.52.78-9.78-.11-19.56-.26-29.34-.4l.07-.4,9.06-.06H78.89Z"/><path class="cls-25" d="M119.06,52.75l.87-3.87q.06,20.87.1,41.74a30,30,0,0,1-.91-5.17C119,74.55,119.06,63.65,119.06,52.75Z"/><path class="cls-26" d="M79.82,112.24c.09-.54.19-1.08.29-1.62l23.33.09Z"/><path class="cls-13" d="M32,54.67c.12.11.35.22.35.33q-.06,18.3-.15,36.58Q32.06,73.13,32,54.67Z"/><path class="cls-27" d="M78.89,28.46h0Z"/><path class="cls-27" d="M92.92,28.37l-2.84,1.37L86,28.4Z"/><path class="cls-27" d="M54.19,28.53l-.07.4-2.2-.13Z"/><path class="cls-27" d="M103.07,36.87l-1.66.17-3.35-4.17Z"/><path class="cls-27" d="M93.15,30.85l3.9,1.94Z"/><path class="cls-7" d="M55.6,74c-2.53-11,4.14-21.26,15.84-24.32,10.62-2.78,21.83,4,25,15.18A20.31,20.31,0,0,1,83.12,89.74c2.37-3.65-1.78-4.36-3.08-6.07-3.7-4.86-8.29-8.82-14.81-9.39C62,74,58.81,74.06,55.6,74Zm10-4.77c1.51,4.46,1.51,4.46,11.16-1.56Z"/><path class="cls-21" d="M55.6,74c3.21.1,6.44,0,9.63.32,6.52.57,11.11,4.53,14.81,9.39,1.3,1.71,5.45,2.42,3.08,6.07C72.6,95.61,55.93,85.63,55.6,74Z"/><path class="cls-3" d="M65.6,69.19l11.16-1.56C67.11,73.65,67.11,73.65,65.6,69.19Z"/></svg>