<svg id="Layer_1" data-name="Layer 1" xmlns="http://www.w3.org/2000/svg" viewBox="0 0 1183 626.07"><defs><style>.cls-1{fill:#8d99ae;}.cls-2{fill:#2b2d42;}.cls-3{fill:#edf2f4;}.cls-4{fill:#821936;}.cls-4,.cls-5{stroke:#edf2f4;stroke-miterlimit:10;}.cls-5{fill:#d90429;stroke-width:2px;}.cls-6{fill:none;stroke:#d90429;stroke-linejoin:round;stroke-width:25px;}</style></defs><title>logo</title><path class="cls-1" d="M605.94,466.65a150.44,150.44,0,0,1-43.41-6.25L334.38,391.67c-40.93-12.33-67.38-41.1-67.38-73.3V94.55c0-22.38,12.31-43,34.67-58.08C322.21,22.62,349.25,15,377.79,15H827.21c28.54,0,55.58,7.62,76.12,21.47C925.69,51.54,938,72.17,938,94.55V318.79c0,31.9-26.09,60.56-66.47,73l-221.28,68.3A150.11,150.11,0,0,1,605.94,466.65Z"/><path class="cls-2" d="M827.21,30C880.11,30,923,58.9,923,94.56V318.79c0,25.25-21.84,48.18-55.9,58.7l-221.27,68.3a138.69,138.69,0,0,1-79,.24L338.7,377.31c-34.49-10.39-56.7-33.47-56.7-58.94V94.56C282,58.9,324.89,30,377.79,30H827.21m0-30H377.79c-31.5,0-61.51,8.53-84.5,24C281,32.31,271.18,42.22,264.12,53.48A77.33,77.33,0,0,0,252,94.56V318.37c0,20.41,8.23,39.74,23.8,55.92,13.64,14.19,32.41,25.17,54.25,31.75L558.2,474.76a168.7,168.7,0,0,0,96.48-.31L876,406.15c21.6-6.67,40.14-17.66,53.6-31.79C944.89,358.25,953,339,953,318.79V94.56a77.33,77.33,0,0,0-12.12-41.08C933.82,42.22,924,32.31,911.71,24c-23-15.5-53-24-84.5-24Z"/><path class="cls-3" d="M827.21,35c24.6,0,47.67,6.41,64.94,18C908.82,64.29,918,79,918,94.55V318.79c0,22.93-20.56,44.1-52.37,53.92L644.36,441a133.78,133.78,0,0,1-76.06.24L340.14,372.52c-32.28-9.72-53.14-31-53.14-54.15V94.55c0-15.52,9.18-30.26,25.85-41.5,17.27-11.64,40.34-18,64.94-18H827.21m0-5H377.79C324.89,30,282,58.9,282,94.55V318.37c0,25.47,22.21,48.55,56.7,58.94L566.86,446a138.69,138.69,0,0,0,79-.24l221.27-68.3C901.16,367,923,344,923,318.79V94.55C923,58.9,880.11,30,827.21,30Z"/><g id="PAWP"><path class="cls-2" d="M395,200.45c4.8,0,7.42-2.77,7.42-7.85V163.53c0-5.08-2.62-7.84-7.42-7.84H354v44.76Zm7.85-76.15c18.32,0,31,13.39,31,32.77v42c0,19.39-12.65,32.77-31,32.77H354v58.61H322.61V124.3Z"/><path class="cls-2" d="M487.25,221.68h33.58l-16.57-60.92Zm-19.19,68.76H435.57L486.16,124.3H522.8l50.59,166.14h-33.8l-10.25-37.38H478.53Z"/><path class="cls-2" d="M690.49,290.44,664.76,181.07,639,290.44h-31L569,124.3h33.58L624,245.67,652.33,124.3h24.86l28.35,121.37L726.91,124.3h32.27l-39,166.14Z"/><path class="cls-2" d="M852.73,200.45c4.8,0,7.41-2.77,7.41-7.85V163.53c0-5.08-2.61-7.84-7.41-7.84h-41v44.76Zm7.85-76.15c18.32,0,31,13.39,31,32.77v42c0,19.39-12.64,32.77-31,32.77H811.73v58.61h-31.4V124.3Z"/><path class="cls-4" d="M411.34,200.56c4.42,0,6.83-2.48,6.83-7V167.4c0-4.56-2.41-7-6.83-7H373.57v40.2Zm7.23-68.39c16.88,0,28.53,12,28.53,29.43v37.72c0,17.41-11.65,29.43-28.53,29.43h-45v52.64H344.64V132.17Z"/><path class="cls-4" d="M496.32,219.63h30.94L512,164.92Zm-17.68,61.76H448.71l46.61-149.22h33.75l46.61,149.22H544.54l-9.44-33.58H488.28Z"/><polygon class="cls-4" points="683.57 281.39 659.86 183.15 636.15 281.39 607.62 281.39 571.66 132.17 602.6 132.17 622.29 241.18 648.41 132.17 671.31 132.17 697.43 241.18 717.12 132.17 746.85 132.17 710.89 281.39 683.57 281.39"/><path class="cls-4" d="M833,200.56c4.42,0,6.83-2.48,6.83-7V167.4c0-4.56-2.41-7-6.83-7H795.27v40.2Zm7.23-68.39c16.88,0,28.53,12,28.53,29.43v37.72c0,17.41-11.65,29.43-28.53,29.43h-45v52.64H766.34V132.17Z"/><path class="cls-5" d="M427.66,200.67c4,0,6.25-2.2,6.25-6.24V171.28c0-4.05-2.2-6.25-6.25-6.25H393.12v35.64ZM434.28,140c15.43,0,26.09,10.66,26.09,26.09v33.44c0,15.44-10.66,26.09-26.09,26.09H393.12v46.68H366.66V140Z"/><path class="cls-5" d="M505.39,217.58h28.3l-14-48.51Zm-16.17,54.76H461.84L504.47,140h30.87L578,272.34H549.49l-8.64-29.77H498Z"/><path class="cls-5" d="M676.64,272.34,655,185.24l-21.68,87.1H607.19L574.3,140h28.29l18,96.65L644.49,140h20.94l23.89,96.65,18-96.65h27.19l-32.89,132.3Z"/><path class="cls-5" d="M813.35,200.67c4,0,6.25-2.2,6.25-6.24V171.28c0-4.05-2.21-6.25-6.25-6.25H778.8v35.64ZM820,140c15.44,0,26.1,10.66,26.1,26.09v33.44c0,15.44-10.66,26.09-26.1,26.09H778.8v46.68H752.34V140Z"/></g><path class="cls-2" d="M134.38,433l23.86-44.39,8.88,4.77-23.86,44.39Zm46.55-32.2c5.18,2.79,6.83,8.28,4,13.46l-6,11.23c-2.79,5.17-8.28,6.83-13.46,4l-12-6.42,4.51-8.39,9.74,5.24a2.15,2.15,0,0,0,3.23-1l4.17-7.77a2.15,2.15,0,0,0-1-3.23l-9.74-5.23,4.51-8.39Z"/><path class="cls-2" d="M192.64,426.34l-13.16,29.6-5.92-2.63,13.16-29.61ZM189,460.19l.11-13.11-3.54-1.57L188,440l6.46,2.87a1.37,1.37,0,0,0,2-.77l2.1-4.73a1.38,1.38,0,0,0-.78-2l-6.45-2.87,2.48-5.6,7.94,3.53a6.1,6.1,0,0,1,3.24,8.44L202,445.8a6,6,0,0,1-6.51,3.8L195.39,463Z"/><path class="cls-2" d="M218.05,443.52a1.38,1.38,0,0,0-2,.88l-6.28,16.29a1.36,1.36,0,0,0,.88,2l2.93,1.14-2.2,5.7L207,467.79a6.1,6.1,0,0,1-3.66-8.26l7.19-18.64a6.1,6.1,0,0,1,8.26-3.66l4.45,1.72-2.2,5.7Zm10.8-2.39a6.1,6.1,0,0,1,3.67,8.26L225.33,468a6.1,6.1,0,0,1-8.26,3.66l-4.41-1.7,2.2-5.71,2.9,1.12a1.38,1.38,0,0,0,2-.88L226,448.24a1.38,1.38,0,0,0-.88-2l-2.89-1.12,2.2-5.71Z"/><path class="cls-2" d="M235.44,478.11l8.08-23.78,6.14,2.09-8.09,23.77ZM260,452.25,258.07,458l-22.15-7.54,1.94-5.71Z"/><path class="cls-2" d="M255.06,484.63l9.34-31,6.21,1.87-9.35,31Zm20.29,6.12-12.8-3.86,1.77-5.86,12.8,3.85ZM276.57,477,266.45,474l1.76-5.86,10.13,3Zm6.36-11.43-12.79-3.86,1.76-5.86,12.8,3.86Z"/><path class="cls-2" d="M295.27,468.75a1.37,1.37,0,0,0-1.87,1.08l-4.48,16.88a1.38,1.38,0,0,0,1.08,1.87l2.74.72-1.57,5.92-4.3-1.14a6.1,6.1,0,0,1-4.54-7.82L287.46,467a6.09,6.09,0,0,1,7.82-4.53l4.3,1.14L298,469.47Zm1.52,21.63a1.38,1.38,0,0,0,1.87-1.09l1-3.82,6.26,1.66-1.34,5a6.09,6.09,0,0,1-7.82,4.54l-4.3-1.14,1.57-5.92Zm8.4-25.33a6.1,6.1,0,0,1,4.54,7.82l-1.34,5-6.27-1.66,1-3.83a1.37,1.37,0,0,0-1.08-1.87l-2.74-.73,1.57-5.91Z"/><path class="cls-2" d="M336.92,472.91l-1.38,5.87-22.78-5.35,1.38-5.87ZM315,501l5.74-24.45,6.31,1.49-5.74,24.44Z"/><path class="cls-2" d="M341.47,473.84l6.34,1.35-6.76,31.68-6.34-1.35Z"/><path class="cls-2" d="M360.71,483.87a1.37,1.37,0,0,0-1.79,1.21l-3.29,17.15a1.39,1.39,0,0,0,1.22,1.79l3.09.59-1.15,6-4.69-.9a6.09,6.09,0,0,1-5.07-7.48l3.76-19.62a6.1,6.1,0,0,1,7.48-5.07l4.68.9-1.15,6Zm10.21-4.28a6.1,6.1,0,0,1,5.07,7.48l-3.76,19.62a6.09,6.09,0,0,1-7.48,5.07l-4.64-.89,1.16-6,3.05.59a1.38,1.38,0,0,0,1.79-1.22l3.28-17.14a1.37,1.37,0,0,0-1.21-1.79l-3.05-.59,1.15-6Z"/><path class="cls-2" d="M384.14,515l-6-1,4.95-30.42,4.18,12.12Zm-.27-32.87,6.36,1,12,34.78-6.35-1Zm15,22.22L402,485.09l6,1-4.94,30.42Z"/><path class="cls-2" d="M441.41,472.44l.48.06,2.55,15.32-14.77,34-10.35-1.24Zm9.13,40.43-14.24-1.7,3.9-9.12,8.76,1-5-30.34,9.1,1.09,10.16,52-10.77-1.28Z"/><path class="cls-2" d="M472.79,526.59l-5.26-33,6.9.59,3.3,32.8ZM489.74,528l-3.47-21.7-7.11,20.8-.18,0-1.25-11.75,6.92-20.28,5.11.44,5.18,33Zm4.57-11.17L500,496.4l6.64.57-10.57,31.16Z"/><path class="cls-2" d="M515.09,497.39l.31,0,2.2,9.74-8.22,22.36-6.69-.41ZM522.45,523l-9.21-.56,2.17-6,5.66.35-4.32-19.29,5.88.35,8.45,33-7-.43Z"/><path class="cls-2" d="M542.89,498.89l-1.3,32.38-6.48-.26,1.3-32.38ZM552,531.68l-4.73-12.21-3.87-.16.24-6,7.06.28a1.38,1.38,0,0,0,1.59-1.47l.21-5.17a1.38,1.38,0,0,0-1.47-1.59l-7.06-.28.25-6.12,8.67.35a6.1,6.1,0,0,1,6.13,6.64l-.3,7.6a6,6,0,0,1-4.65,5.94L559,532Z"/><path class="cls-2" d="M564.1,532.09l.65-32.4,6.48.13-.65,32.4Zm21.19.42-13.36-.27.12-6.12,13.37.27ZM582.78,519l-10.58-.22.12-6.12,10.58.22Zm3-12.73L572.46,506l.12-6.12,13.36.27Z"/><path class="cls-2" d="M596.85,532.58h-6.08l0-30.82,6.08,11.29Zm-5.56-32.4h6.43l17.49,32.38h-6.44Zm18.37,19.52V500.17h6.07l0,30.82Z"/><path class="cls-2" d="M622.59,532.46l-.69-32.38,6.48-.14.69,32.39Zm20.63-26.72-13.36.29-.13-6.12,13.36-.29Zm-2.52,12.84-10.57.22-.13-6.11,10.57-.23ZM643.78,532l-13.36.29-.13-6.12,13.36-.29Z"/><path class="cls-2" d="M662.62,525.35a1.38,1.38,0,0,0,1.47-1.59l-.14-3.42c0-1-.59-1.28-1.59-1.46l-8.44-1.46c-3.54-.63-6.59-2.62-6.74-6.22l-.22-5.48a6.1,6.1,0,0,1,6.13-6.65l4.36-.17.25,6.11-2.74.11a1.38,1.38,0,0,0-1.47,1.59l.12,3.06c0,1,.59,1.28,1.59,1.47l8.44,1.46c3.54.62,6.59,2.62,6.74,6.21l.23,5.85a6.09,6.09,0,0,1-6.13,6.64l-4.36.18-.24-6.12Zm-8.21,6.46a6.09,6.09,0,0,1-6.64-6.13l-.17-4.13,6.3-.26.11,2.88a1.38,1.38,0,0,0,1.59,1.47l2.93-.12.24,6.11Zm8.21-33.12a6.1,6.1,0,0,1,6.65,6.13l.15,3.77-6.3.26-.1-2.52a1.38,1.38,0,0,0-1.59-1.47l-2.38.1-.25-6.12Z"/><path class="cls-2" d="M690.34,523.88a1.37,1.37,0,0,0,1.44-1.61l-.21-3.42c-.06-1-.62-1.27-1.62-1.43l-8.46-1.3c-3.55-.55-6.65-2.48-6.86-6.07l-.34-5.48a6.1,6.1,0,0,1,6-6.77l4.35-.26.37,6.11-2.74.16a1.38,1.38,0,0,0-1.43,1.62l.18,3.06c.06,1,.62,1.27,1.62,1.43l8.47,1.29c3.55.56,6.64,2.49,6.86,6.08l.35,5.84a6.1,6.1,0,0,1-6,6.77l-4.36.26-.37-6.11Zm-8.08,6.62a6.09,6.09,0,0,1-6.76-6l-.25-4.13,6.29-.38.17,2.87a1.38,1.38,0,0,0,1.62,1.44l2.92-.18.37,6.11Zm7.55-33.27a6.1,6.1,0,0,1,6.77,6l.22,3.77-6.29.38-.15-2.51a1.38,1.38,0,0,0-1.62-1.44l-2.38.15-.37-6.11Z"/><path class="cls-2" d="M720.2,495.11l.31,0,3.64,9.3-4.76,23.33-6.68.61Zm11.13,24.21-9.19.83,1.24-6.26,5.65-.51L721.85,495l5.87-.53L741,525.76l-6.94.63Z"/><path class="cls-2" d="M751.06,524.65l-6,.68-3.49-30.62,7.31,10.53Zm-9.17-31.57,6.4-.73,21,30.22-6.39.72Zm20.46,17.33L760.13,491l6-.68,3.49,30.62Z"/><path class="cls-2" d="M776.59,521.63l-4.46-32.09,6.42-.89L783,520.74Zm12.25-34.41a6.09,6.09,0,0,1,7.21,5.45l2.7,19.43a6.09,6.09,0,0,1-5.45,7.21l-8.95,1.24-.85-6.06,7.36-1a1.37,1.37,0,0,0,1.3-1.72l-2.35-16.94a1.39,1.39,0,0,0-1.73-1.31l-7.35,1-.84-6.07Z"/><path class="cls-2" d="M829,513.75l-21.84-47.12,10.59-2,18.81,47.7Zm26-5-14.39-31-1.83,34.15-.27.05-6.86-17.07,1.79-33.28,7.84-1.51L863,507.21Zm2.11-18.65-.16-33,10.17-2-2.62,51.12Z"/><path class="cls-2" d="M882.58,502.83,875,471.33l6.3-1.52,7.58,31.5ZM897,472.32l-13,3.13-1.43-5.95,13-3.13Zm.28,13.08L887,487.87l-1.43-5.95,10.28-2.47Zm5.87,12.47-13,3.12L888.76,495l13-3.12Z"/><path class="cls-2" d="M907.32,463.24l8.49,31.27-6.25,1.7-8.49-31.27ZM928.93,491l-11.81,3.2-1.61-5.9L927.32,485Z"/><path class="cls-2" d="M931.28,456.42l9.44,31-6.19,1.89-9.45-31Zm22.44,27L942,487l-1.79-5.86,11.71-3.57Z"/><path class="cls-2" d="M949.38,450.82l6.08-2.11,27.13,24.86-6.07,2.11Zm15.87,28.78-5.73,2-10.13-29.11,9.45,8.67Zm7.89-16.37-6.42-18.44,5.74-2,10.13,29.11Z"/><path class="cls-2" d="M991.05,470.37l-12-30.08,6-2.4,12,30.08Zm9.92-32.26-12.41,5-2.27-5.68,12.41-5Zm2.16,12.9-9.82,3.92L991,449.25l9.82-3.93Zm7.6,11.49-12.41,5-2.27-5.69,12.41-5Z"/><path class="cls-2" d="M1027.21,448.63a1.38,1.38,0,0,0,.76-2l-1.42-3.11c-.41-.9-1-1-2-.76l-8.36,1.84c-3.51.76-7.09.07-8.59-3.2l-2.28-5a6.1,6.1,0,0,1,3.16-8.47l4-1.81,2.54,5.57-2.5,1.14a1.38,1.38,0,0,0-.75,2l1.27,2.78c.41.9,1,1,2,.76l8.36-1.84c3.51-.76,7.09-.07,8.59,3.2l2.43,5.32a6.1,6.1,0,0,1-3.16,8.47l-4,1.81-2.55-5.56Zm-5.15,9.08a6.1,6.1,0,0,1-8.47-3.16l-1.72-3.77,5.73-2.61,1.2,2.62a1.37,1.37,0,0,0,2,.75l2.67-1.21,2.54,5.57Zm-4.93-33.77a6.1,6.1,0,0,1,8.47,3.16l1.57,3.44-5.74,2.62-1-2.3a1.38,1.38,0,0,0-2-.75l-2.17,1-2.54-5.57Z"/><path class="cls-2" d="M1053.64,435.41a1.37,1.37,0,0,0,.64-2.06l-1.6-3c-.46-.87-1.09-.9-2.07-.63l-8.24,2.32c-3.46,1-7.07.48-8.76-2.7l-2.56-4.85a6.1,6.1,0,0,1,2.66-8.64l3.86-2,2.86,5.41-2.43,1.28a1.39,1.39,0,0,0-.64,2.07l1.43,2.71c.47.87,1.09.9,2.07.63l8.24-2.32c3.46-1,7.08-.48,8.76,2.7l2.74,5.17a6.11,6.11,0,0,1-2.66,8.64l-3.86,2-2.86-5.41Zm-4.61,9.37a6.1,6.1,0,0,1-8.64-2.66l-1.94-3.66,5.57-2.95,1.35,2.55a1.38,1.38,0,0,0,2.07.64l2.58-1.37,2.86,5.41Zm-6.89-33.42a6.1,6.1,0,0,1,8.64,2.66l1.76,3.34-5.57,2.95-1.17-2.23a1.38,1.38,0,0,0-2.07-.64l-2.11,1.12-2.86-5.41Z"/><path class="cls-2" d="M241.69,549.41l15-48.12,9.62,3-15,48.12Zm39.58-40.47c5.62,1.75,8.29,6.84,6.54,12.45L284,533.55c-1.75,5.62-6.83,8.29-12.45,6.54l-13-4,2.83-9.09L272,530.25a2.14,2.14,0,0,0,3-1.56l2.62-8.43a2.14,2.14,0,0,0-1.56-3L265.48,514l2.83-9.09Z"/><path class="cls-2" d="M307.36,516.21,295,565.07l-9.77-2.48,12.37-48.85Zm3.37,52.84-3.28-20.11-5.84-1.47,2.3-9.1,10.66,2.7a2.14,2.14,0,0,0,2.89-1.72l2-7.81a2.14,2.14,0,0,0-1.72-2.89L307.06,526l2.33-9.23,13.1,3.31c5.7,1.45,8.64,6.38,7.2,12.08l-2.91,11.47c-1.17,4.61-4.62,7.42-9,7.54l3.45,20.59Z"/><path class="cls-2" d="M350,535.71a2.13,2.13,0,0,0-2.8,1.86l-5.42,26.62a2.14,2.14,0,0,0,1.86,2.8l4.8,1-1.89,9.33-7.27-1.48c-5.77-1.17-8.94-6-7.77-11.72l6.2-30.46a9.48,9.48,0,0,1,11.72-7.76l7.27,1.48-1.9,9.33Zm16-6.47c5.77,1.17,8.94,6,7.76,11.72l-6.19,30.46c-1.17,5.77-6,8.94-11.72,7.76l-7.2-1.46,1.89-9.33,4.74,1a2.13,2.13,0,0,0,2.8-1.86l5.41-26.62a2.13,2.13,0,0,0-1.85-2.8l-4.74-1,1.9-9.33Z"/><path class="cls-2" d="M376.59,582.82l8-49.77,9.95,1.6-8,49.77ZM410,537.14c5.8.93,9.17,5.58,8.24,11.39l-2,12.58c-.94,5.8-5.59,9.17-11.39,8.24l-13.41-2.16,1.5-9.4,10.93,1.76a2.14,2.14,0,0,0,2.72-2l1.4-8.71a2.14,2.14,0,0,0-2-2.72l-10.92-1.76,1.51-9.4Z"/><path class="cls-2" d="M426.07,539.57l10,1.21-6.07,50-10-1.22Zm27.24,3.31,10,1.21-6.07,50-10-1.21,2.53-20.85-15.15-1.84,1.15-9.45,15.15,1.84Z"/><path class="cls-2" d="M478.21,596.05l1.5-17.36L467.06,544.5l11,1,11.67,34.11-1.5,17.36Zm18.85-49,11,.95L491,577.41l-4.09-11.94Z"/><path class="cls-2" d="M522.25,548.81l-2.84,50.31-10.07-.56,2.85-50.32Zm18.26,51.51-19-1.08.54-9.5,19,1.07Z"/><path class="cls-2" d="M560.92,550.55l.49,0,4,15-11.56,35.2-10.43-.27ZM573.76,590l-14.35-.37,3.05-9.45,8.82.23-7.77-29.75,9.17.24,14.91,50.81-10.84-.29Z"/><path class="cls-2" d="M604,560.42a2.15,2.15,0,0,0-2.37,2.4l.13,27.15a2.14,2.14,0,0,0,2.39,2.37l4.41,0,0,9.52-6.93,0c-5.87,0-10-4-10-9.89l-.15-31.07c0-5.88,4-10,9.89-10l6.93,0,0,9.52Zm13.39-9.58c5.88,0,10,4,10,9.89l0,8.12-10.07,0,0-6.16a2.15,2.15,0,0,0-2.39-2.37l-4.41,0-.05-9.52ZM615,592.29a2.15,2.15,0,0,0,2.37-2.39l0-6.16,10.08,0,0,8.12c0,5.88-4,10-9.89,10l-6.93,0,0-9.52Z"/><path class="cls-2" d="M666.5,549.79l.31,9.38-36.38,1.22-.31-9.37ZM645,601l-1.31-39,10.08-.34,1.31,39Z"/><path class="cls-2" d="M672.43,549.39l10.06-.56,2.79,50.32-10.06.56Z"/><path class="cls-2" d="M704,556.64a2.14,2.14,0,0,0-2.18,2.56L704,586.27a2.14,2.14,0,0,0,2.56,2.19l4.4-.35.75,9.49-6.91.55A9.48,9.48,0,0,1,694.1,589l-2.46-31a9.48,9.48,0,0,1,9.13-10.69l6.91-.55.75,9.49Zm12.65-10.55a9.47,9.47,0,0,1,10.69,9.12l.64,8.1-10,.79-.48-6.14a2.14,2.14,0,0,0-2.56-2.18l-4.4.35-.75-9.49Zm.76,41.51a2.14,2.14,0,0,0,2.18-2.56l-.49-6.14,10-.8.64,8.1c.47,5.86-3.26,10.22-9.12,10.69l-6.91.54L713,588Z"/><path class="cls-2" d="M750.84,543.09l10-1.3,6.46,50-10,1.29Zm27.22-3.52,10-1.29,6.46,50-10,1.3-2.7-20.83-15.13,1.95-1.22-9.44,15.13-2Z"/><path class="cls-2" d="M805.88,586.52l-8.38-49.7,9.94-1.67,8.38,49.7Zm25.72-45.79-20.5,3.45-1.59-9.38L830,531.34Zm-1,20.33-16.22,2.73-1.58-9.39L829,551.67Zm7.77,20-20.5,3.45-1.58-9.39,20.5-3.45Z"/><path class="cls-2" d="M847.8,527.77l10.42,49.31-9.86,2.08-10.42-49.3Zm26.31,46-11.81-16.6-5.89,1.24-1.94-9.17,10.75-2.27a2.15,2.15,0,0,0,1.84-2.83l-1.66-7.87a2.14,2.14,0,0,0-2.82-1.84l-10.76,2.27-2-9.31,13.21-2.79c5.76-1.22,10.57,1.92,11.78,7.67l2.45,11.57c1,4.66-.88,8.7-4.75,10.73l12.17,17Z"/><path class="cls-2" d="M894.7,526.51a2.13,2.13,0,0,0-1.69,2.9l6.89,26.27a2.15,2.15,0,0,0,2.91,1.7l4.74-1.24,2.42,9.2-7.18,1.89c-5.69,1.49-10.65-1.4-12.14-7.09l-7.89-30.06c-1.49-5.69,1.4-10.65,7.09-12.14l7.18-1.88,2.41,9.2Zm11.47-12.85c5.68-1.5,10.64,1.4,12.13,7.09l7.9,30.06a9.48,9.48,0,0,1-7.09,12.13L912,564.81l-2.42-9.21,4.67-1.22a2.15,2.15,0,0,0,1.7-2.91l-6.9-26.27a2.14,2.14,0,0,0-2.9-1.7l-4.68,1.23-2.41-9.21Z"/><path class="cls-2" d="M957.53,541.43a2.14,2.14,0,0,0,1.53-3l-1.63-5.06c-.47-1.47-1.42-1.67-3-1.53l-13.25,1.33c-5.56.54-11-1.17-12.69-6.5l-2.62-8.13c-1.81-5.59.81-10.7,6.41-12.51l6.46-2.08,2.92,9.06-4.06,1.31a2.13,2.13,0,0,0-1.53,3l1.46,4.53c.47,1.47,1.42,1.68,3,1.54L953.77,522c5.57-.54,11,1.17,12.69,6.5l2.8,8.66c1.8,5.6-.81,10.71-6.41,12.51l-6.46,2.09-2.92-9.06Zm-9.6,13.1c-5.6,1.81-10.71-.81-12.51-6.41l-2-6.12,9.32-3,1.38,4.26a2.14,2.14,0,0,0,3,1.53l4.33-1.4,2.92,9.07Zm-1.53-53.06c5.6-1.8,10.71.82,12.51,6.41l1.81,5.6-9.33,3-1.2-3.73a2.15,2.15,0,0,0-3-1.54l-3.53,1.14-2.92-9.06Z"/><path class="cls-6" d="M566.17,320.53S608.5,363.5,621,396c17.24,44.71-46.37,46-33.08,0,10.54-36.52,54.87-76,54.87-76"/><path class="cls-3" d="M566.17,320.53a333.93,333.93,0,0,1,24.14,25.19,268.87,268.87,0,0,1,21.3,27.81,147.2,147.2,0,0,1,8.81,15.31,86.5,86.5,0,0,1,3.53,8.24,42.83,42.83,0,0,1,2.19,8.91,30.18,30.18,0,0,1-.14,9.43,21.74,21.74,0,0,1-3.79,8.95,19.7,19.7,0,0,1-7.61,6.23,21.18,21.18,0,0,1-9.58,1.93,21.54,21.54,0,0,1-9.42-2.5,21.07,21.07,0,0,1-7.34-6.44,24.27,24.27,0,0,1-3.85-8.82,33.19,33.19,0,0,1-.61-9.35,46.81,46.81,0,0,1,1.6-9c.37-1.47.9-2.86,1.35-4.29s1-2.8,1.6-4.18a114.54,114.54,0,0,1,8.11-15.78,172.28,172.28,0,0,1,10-14.48c3.56-4.64,7.35-9.1,11.24-13.45A243.48,243.48,0,0,1,642.83,320c-8.14,8.29-15.88,16.93-23.12,25.94q-5.46,6.74-10.43,13.81c-3.32,4.7-6.43,9.54-9.25,14.52a117.28,117.28,0,0,0-7.44,15.35,57.25,57.25,0,0,0-4,16.12,28.21,28.21,0,0,0,.55,8,19.32,19.32,0,0,0,3.09,7,16.47,16.47,0,0,0,12.93,6.81,16.2,16.2,0,0,0,7.34-1.44,14.77,14.77,0,0,0,5.74-4.64c3-4,3.81-9.53,3.1-14.85S618.63,396,616.3,390.8a152.52,152.52,0,0,0-8.2-15.05c-3-4.92-6.18-9.71-9.52-14.42s-6.76-9.37-10.31-13.94C581.2,338.22,573.79,329.29,566.17,320.53Z"/></svg>