<svg xmlns="http://www.w3.org/2000/svg" viewBox="0 0 701 481.65"><defs><style>.cls-1{fill:#8d99ae;}.cls-2{fill:#2b2d42;}.cls-3{fill:#edf2f4;}.cls-4{fill:#821936;}.cls-4,.cls-5{stroke:#edf2f4;stroke-miterlimit:10;}.cls-5{fill:#d90429;stroke-width:2px;}.cls-6{fill:none;stroke:#d90429;stroke-linejoin:round;stroke-width:25px;}</style></defs><title>logo-notxt</title><g id="Layer_2" data-name="Layer 2"><g id="Layer_1-2" data-name="Layer 1"><path class="cls-1" d="M353.94,466.65a150.44,150.44,0,0,1-43.41-6.25L82.38,391.67C41.45,379.34,15,350.57,15,318.37V94.55c0-22.38,12.31-43,34.67-58.08C70.21,22.62,97.25,15,125.79,15H575.21c28.54,0,55.58,7.62,76.12,21.47C673.69,51.54,686,72.17,686,94.55V318.79c0,31.9-26.09,60.56-66.47,73l-221.28,68.3A150.11,150.11,0,0,1,353.94,466.65Z"/><path class="cls-2" d="M575.21,30C628.11,30,671,58.9,671,94.55V318.79c0,25.25-21.84,48.18-55.9,58.7l-221.27,68.3a138.69,138.69,0,0,1-79,.24L86.7,377.31C52.21,366.92,30,343.84,30,318.37V94.55C30,58.9,72.89,30,125.79,30H575.21m0-30H125.79c-31.5,0-61.51,8.53-84.5,24C29,32.31,19.18,42.22,12.12,53.48A77.32,77.32,0,0,0,0,94.55V318.37c0,20.41,8.23,39.74,23.8,55.92C37.44,388.48,56.21,399.46,78.05,406L306.2,474.76a168.7,168.7,0,0,0,96.48-.31L624,406.15c21.6-6.67,40.14-17.66,53.6-31.79C692.89,358.25,701,339,701,318.79V94.55a77.32,77.32,0,0,0-12.12-41.07C681.82,42.22,672,32.31,659.71,24c-23-15.5-53-24-84.5-24Z"/><path class="cls-3" d="M575.21,35c24.6,0,47.67,6.41,64.94,18C656.82,64.29,666,79,666,94.55V318.79c0,22.93-20.56,44.1-52.37,53.92L392.36,441a133.78,133.78,0,0,1-76.06.24L88.14,372.52C55.86,362.8,35,341.54,35,318.37V94.55C35,79,44.18,64.29,60.85,53.05c17.27-11.64,40.34-18,64.94-18H575.21m0-5H125.79C72.89,30,30,58.9,30,94.55V318.37c0,25.47,22.21,48.55,56.7,58.94L314.86,446a138.69,138.69,0,0,0,79-.24l221.27-68.3C649.16,367,671,344,671,318.79V94.55C671,58.9,628.11,30,575.21,30Z"/><g id="PAWP"><path class="cls-2" d="M143,200.45c4.8,0,7.42-2.77,7.42-7.85V163.53c0-5.08-2.62-7.84-7.42-7.84H102v44.76Zm7.85-76.15c18.32,0,31,13.39,31,32.77v42c0,19.39-12.65,32.77-31,32.77H102v58.61H70.62V124.3Z"/><path class="cls-2" d="M235.25,221.68h33.58l-16.57-60.92Zm-19.19,68.76H183.57L234.16,124.3H270.8l50.59,166.14h-33.8l-10.25-37.38H226.53Z"/><path class="cls-2" d="M438.49,290.44,412.76,181.07,387,290.44h-31L317,124.3h33.58L372,245.67,400.33,124.3h24.86l28.35,121.37L474.91,124.3h32.27l-39,166.14Z"/><path class="cls-2" d="M600.73,200.45c4.8,0,7.41-2.77,7.41-7.85V163.53c0-5.08-2.61-7.84-7.41-7.84h-41v44.76Zm7.85-76.15c18.32,0,31,13.39,31,32.77v42c0,19.39-12.64,32.77-31,32.77H559.73v58.61h-31.4V124.3Z"/><path class="cls-4" d="M159.34,200.56c4.42,0,6.83-2.48,6.83-7V167.4c0-4.56-2.41-7-6.83-7H121.57v40.2Zm7.23-68.39c16.88,0,28.53,12,28.53,29.43v37.72c0,17.41-11.65,29.43-28.53,29.43h-45v52.64H92.64V132.17Z"/><path class="cls-4" d="M244.32,219.63h30.94L260,164.92Zm-17.68,61.76H196.71l46.61-149.22h33.75l46.61,149.22H292.54l-9.44-33.58H236.28Z"/><polygon class="cls-4" points="431.56 281.39 407.86 183.15 384.15 281.39 355.62 281.39 319.66 132.17 350.6 132.17 370.29 241.18 396.41 132.17 419.31 132.17 445.43 241.18 465.12 132.17 494.85 132.17 458.89 281.39 431.56 281.39"/><path class="cls-4" d="M581,200.56c4.42,0,6.83-2.48,6.83-7V167.4c0-4.56-2.41-7-6.83-7H543.27v40.2Zm7.23-68.39c16.88,0,28.53,12,28.53,29.43v37.72c0,17.41-11.65,29.43-28.53,29.43h-45v52.64H514.34V132.17Z"/><path class="cls-5" d="M175.66,200.67c4.05,0,6.25-2.2,6.25-6.24V171.28c0-4.05-2.2-6.25-6.25-6.25H141.12v35.64ZM182.28,140c15.43,0,26.09,10.66,26.09,26.09v33.44c0,15.44-10.66,26.09-26.09,26.09H141.12v46.68H114.66V140Z"/><path class="cls-5" d="M253.39,217.58h28.3l-14-48.51Zm-16.17,54.76H209.84L252.47,140h30.87L326,272.34H297.49l-8.64-29.77H246Z"/><path class="cls-5" d="M424.64,272.34,403,185.24l-21.68,87.1H355.19L322.29,140h28.3l18,96.65L392.49,140h20.94l23.89,96.65,18-96.65h27.19l-32.89,132.3Z"/><path class="cls-5" d="M561.35,200.67c4,0,6.25-2.2,6.25-6.24V171.28c0-4.05-2.21-6.25-6.25-6.25H526.8v35.64ZM568,140c15.44,0,26.1,10.66,26.1,26.09v33.44c0,15.44-10.66,26.09-26.1,26.09H526.8v46.68H500.34V140Z"/></g><path class="cls-6" d="M314.17,320.53S356.5,363.5,369,396c17.24,44.71-46.37,46-33.08,0,10.54-36.52,54.87-76,54.87-76"/><path class="cls-3" d="M314.17,320.53a333.93,333.93,0,0,1,24.14,25.19,268.87,268.87,0,0,1,21.3,27.81,147.2,147.2,0,0,1,8.81,15.31,85.41,85.41,0,0,1,3.53,8.24,42.83,42.83,0,0,1,2.19,8.91,30.18,30.18,0,0,1-.14,9.43,21.74,21.74,0,0,1-3.79,8.95,19.7,19.7,0,0,1-7.61,6.23,21.18,21.18,0,0,1-9.58,1.93,21.54,21.54,0,0,1-9.42-2.5,21.07,21.07,0,0,1-7.34-6.44,24.27,24.27,0,0,1-3.85-8.82,33.19,33.19,0,0,1-.61-9.35,46.81,46.81,0,0,1,1.6-9c.37-1.47.9-2.86,1.35-4.29s1-2.8,1.6-4.18a115.65,115.65,0,0,1,8.11-15.78,174.68,174.68,0,0,1,10-14.48c3.56-4.64,7.35-9.1,11.24-13.45A243.48,243.48,0,0,1,390.83,320c-8.14,8.29-15.88,16.93-23.12,25.94q-5.46,6.74-10.43,13.81c-3.32,4.7-6.43,9.54-9.25,14.52a117.28,117.28,0,0,0-7.44,15.35,57.25,57.25,0,0,0-4,16.12,28.21,28.21,0,0,0,.55,8,19.32,19.32,0,0,0,3.09,7,16.47,16.47,0,0,0,12.93,6.81,16.2,16.2,0,0,0,7.34-1.44,14.77,14.77,0,0,0,5.74-4.64c3-4,3.81-9.53,3.1-14.85S366.63,396,364.3,390.8a152.52,152.52,0,0,0-8.2-15.05c-3-4.92-6.18-9.71-9.52-14.42s-6.76-9.37-10.31-13.94C329.2,338.22,321.79,329.29,314.17,320.53Z"/></g></g></svg>