<svg xmlns="http://www.w3.org/2000/svg" viewBox="0 0 1183 626.07"><defs><style>.cls-1{fill:#8d99ae;}.cls-11,.cls-12,.cls-2,.cls-4{fill:#2b2d42;}.cls-3{fill:#edf2f4;}.cls-4{font-size:230.74px;letter-spacing:-0.04em;}.cls-4,.cls-8{font-family:IndustryInc-Base, Industry Inc;}.cls-5{letter-spacing:-0.05em;}.cls-6{letter-spacing:0em;}.cls-7{fill:#821936;}.cls-7,.cls-8{stroke:#edf2f4;stroke-miterlimit:10;}.cls-8{font-size:183.75px;fill:#d90429;stroke-width:2px;letter-spacing:-0.04em;}.cls-9{letter-spacing:-0.05em;}.cls-10{letter-spacing:0em;}.cls-11{font-size:70px;}.cls-11,.cls-12{font-family:IndustryInc-Stencil, Industry Inc;}.cls-12{font-size:45px;}.cls-13{fill:none;stroke:#d90429;stroke-linejoin:round;stroke-width:25px;}</style></defs><title>logo</title><g id="Layer_2" data-name="Layer 2"><g id="Layer_1-2" data-name="Layer 1"><path class="cls-1" d="M594.94,466.65a150.44,150.44,0,0,1-43.41-6.25L323.38,391.67c-40.93-12.33-67.38-41.1-67.38-73.3V94.55c0-22.38,12.31-43,34.67-58.08C311.21,22.62,338.25,15,366.79,15H816.21c28.54,0,55.58,7.62,76.12,21.47C914.69,51.54,927,72.17,927,94.55V318.79c0,31.9-26.09,60.56-66.47,73l-221.28,68.3A150.11,150.11,0,0,1,594.94,466.65Z"/><path class="cls-2" d="M816.21,30C869.11,30,912,58.9,912,94.55V318.79c0,25.25-21.84,48.18-55.9,58.7l-221.27,68.3a138.69,138.69,0,0,1-79,.24L327.7,377.31c-34.49-10.39-56.7-33.47-56.7-58.94V94.55C271,58.9,313.89,30,366.79,30H816.21m0-30H366.79c-31.5,0-61.51,8.53-84.5,24C270,32.31,260.18,42.22,253.12,53.48A77.32,77.32,0,0,0,241,94.55V318.37c0,20.41,8.23,39.74,23.8,55.92,13.64,14.19,32.41,25.17,54.25,31.75L547.2,474.76a168.7,168.7,0,0,0,96.48-.31L865,406.15c21.6-6.67,40.14-17.66,53.6-31.79C933.89,358.25,942,339,942,318.79V94.55a77.32,77.32,0,0,0-12.12-41.07C922.82,42.22,913,32.31,900.71,24c-23-15.5-53-24-84.5-24Z"/><path class="cls-3" d="M816.21,35c24.6,0,47.67,6.41,64.94,18C897.82,64.29,907,79,907,94.55V318.79c0,22.93-20.56,44.1-52.37,53.92L633.36,441a133.78,133.78,0,0,1-76.06.24L329.14,372.52c-32.28-9.72-53.14-31-53.14-54.15V94.55c0-15.52,9.18-30.26,25.85-41.5,17.27-11.64,40.34-18,64.94-18H816.21m0-5H366.79C313.89,30,271,58.9,271,94.55V318.37c0,25.47,22.21,48.55,56.7,58.94L555.86,446a138.69,138.69,0,0,0,79-.24l221.27-68.3C890.16,367,912,344,912,318.79V94.55C912,58.9,869.11,30,816.21,30Z"/><g id="PAWP"><text class="cls-4" transform="translate(294.39 290.44) scale(0.95 1)">P<tspan class="cls-5" x="134.06" y="0">A</tspan><tspan class="cls-6" x="274.81" y="0">WP</tspan></text><path class="cls-7" d="M400.34,200.56c4.42,0,6.83-2.48,6.83-7V167.4c0-4.56-2.41-7-6.83-7H362.57v40.2Zm7.23-68.39c16.88,0,28.53,12,28.53,29.43v37.72c0,17.41-11.65,29.43-28.53,29.43h-45v52.64H333.64V132.17Z"/><path class="cls-7" d="M485.32,219.63h30.94L501,164.92Zm-17.68,61.76H437.71l46.61-149.22h33.75l46.61,149.22H533.54l-9.44-33.58H477.28Z"/><polygon class="cls-7" points="672.57 281.39 648.86 183.15 625.15 281.39 596.62 281.39 560.66 132.17 591.6 132.17 611.29 241.18 637.41 132.17 660.31 132.17 686.43 241.18 706.12 132.17 735.85 132.17 699.89 281.39 672.57 281.39"/><path class="cls-7" d="M822,200.56c4.42,0,6.83-2.48,6.83-7V167.4c0-4.56-2.41-7-6.83-7H784.27v40.2Zm7.23-68.39c16.88,0,28.53,12,28.53,29.43v37.72c0,17.41-11.65,29.43-28.53,29.43h-45v52.64H755.34V132.17Z"/><text class="cls-8" transform="translate(341.14 272.34)">P<tspan class="cls-9" x="106.76" y="0">A</tspan><tspan class="cls-10" x="218.84" y="0">WP</tspan></text></g><text class="cls-11" transform="matrix(0.88, 0.47, -0.47, 0.88, 118.51, 430.39)">P</text><text class="cls-12" transform="matrix(0.91, 0.41, -0.41, 0.91, 159.31, 451.87)">r</text><text class="cls-12" transform="translate(187.45 464.32) rotate(21.09)">o</text><text class="cls-12" transform="translate(215.36 475.02) rotate(18.78)">t</text><text class="cls-12" transform="translate(240.65 483.6) rotate(16.77)">e</text><text class="cls-12" transform="translate(267.04 491.54) rotate(14.88)">c</text><text class="cls-12" transform="matrix(0.97, 0.23, -0.23, 0.97, 294.64, 498.85)">t</text><text class="cls-12" transform="translate(320.24 504.78) rotate(12.04)">i</text><text class="cls-12" transform="matrix(0.98, 0.19, -0.19, 0.98, 334.12, 507.82)">o</text><text class="cls-12" transform="matrix(0.99, 0.16, -0.16, 0.99, 363.64, 513.47)">n</text><text class="cls-12" transform="translate(395.74 518.59) rotate(8.14)"> </text><text class="cls-11" transform="translate(407.2 520.43) rotate(6.8)">A</text><text class="cls-12" transform="matrix(1, 0.09, -0.09, 1, 452.96, 525.84)">w</text><text class="cls-12" transform="matrix(1, 0.06, -0.06, 1, 490.97, 529.06)">a</text><text class="cls-12" transform="matrix(1, 0.04, -0.04, 1, 520.56, 530.87)">r</text><text class="cls-12" transform="translate(549.55 532.02) rotate(1.16)">e</text><text class="cls-12" transform="matrix(1, 0, 0, 1, 576.22, 532.58)">n</text><text class="cls-12" transform="translate(608.04 532.54) rotate(-1.22)">e</text><text class="cls-12" transform="translate(634.37 531.99) rotate(-2.32)">s</text><text class="cls-12" transform="translate(662.22 530.87) rotate(-3.47)">s</text><text class="cls-12" transform="matrix(1, -0.08, 0.08, 1, 690.12, 529.12)"> </text><text class="cls-12" transform="translate(700.99 528.38) rotate(-5.16)">a</text><text class="cls-12" transform="matrix(0.99, -0.11, 0.11, 0.99, 730.49, 525.74)">n</text><text class="cls-12" transform="matrix(0.99, -0.14, 0.14, 0.99, 762.07, 522.12)">d</text><text class="cls-12" transform="translate(791.59 517.94) rotate(-8.93)"> </text><text class="cls-11" transform="translate(804.45 516.36) rotate(-10.9)">W</text><text class="cls-12" transform="matrix(0.97, -0.23, 0.23, 0.97, 868.12, 503.66)">e</text><text class="cls-12" transform="translate(895.13 497.14) rotate(-15.2)">l</text><text class="cls-12" transform="translate(920.13 490.34) rotate(-16.96)">l</text><text class="cls-12" transform="matrix(0.94, -0.33, 0.33, 0.94, 945.16, 482.76)">n</text><text class="cls-12" transform="translate(976.75 471.69) rotate(-21.79)">e</text><text class="cls-12" transform="translate(1002.75 461.3) rotate(-24.55)">s</text><text class="cls-12" transform="translate(1029.95 448.85) rotate(-27.88)">s</text><text class="cls-11" transform="translate(206.87 540.84) rotate(19.79)"> </text><text class="cls-11" transform="translate(225.41 547.76) rotate(17.3)">P</text><text class="cls-11" transform="translate(268.86 561.24) rotate(14.21)">r</text><text class="cls-11" transform="translate(314.37 572.7) rotate(11.49)">o</text><text class="cls-11" transform="translate(360.13 581.95) rotate(9.11)">p</text><text class="cls-11" transform="matrix(0.99, 0.12, -0.12, 0.99, 403.5, 588.93)">h</text><text class="cls-11" transform="translate(451.31 594.68) rotate(4.94)">y</text><text class="cls-11" transform="translate(492.82 598.24) rotate(3.24)">l</text><text class="cls-11" transform="translate(531.25 600.48) rotate(1.5)">a</text><text class="cls-11" transform="translate(576.36 601.66) rotate(-0.27)">c</text><text class="cls-11" transform="matrix(1, -0.03, 0.03, 1, 619.06, 601.45)">t</text><text class="cls-11" transform="translate(658.7 600.01) rotate(-3.18)">i</text><text class="cls-11" transform="translate(679.53 598.99) rotate(-4.53)">c</text><text class="cls-11" transform="translate(722.72 595.43) rotate(-5.86)"> </text><text class="cls-11" transform="translate(740.82 593.78) rotate(-7.36)">H</text><text class="cls-11" transform="translate(789.42 587.44) rotate(-9.56)">e</text><text class="cls-11" transform="translate(831.95 580.31) rotate(-11.93)">r</text><text class="cls-11" transform="matrix(0.97, -0.25, 0.25, 0.97, 877.91, 570.58)">o</text><text class="cls-11" transform="matrix(0.95, -0.31, 0.31, 0.95, 923.45, 558.59)">s</text><path class="cls-13" d="M555.17,320.53S597.5,363.5,610,396c17.24,44.71-46.37,46-33.08,0,10.54-36.52,54.87-76,54.87-76"/><path class="cls-3" d="M555.17,320.53a333.93,333.93,0,0,1,24.14,25.19,268.87,268.87,0,0,1,21.3,27.81,147.2,147.2,0,0,1,8.81,15.31,85.41,85.41,0,0,1,3.53,8.24,42.83,42.83,0,0,1,2.19,8.91,30.18,30.18,0,0,1-.14,9.43,21.74,21.74,0,0,1-3.79,8.95,19.7,19.7,0,0,1-7.61,6.23,21.18,21.18,0,0,1-9.58,1.93,21.54,21.54,0,0,1-9.42-2.5,21.07,21.07,0,0,1-7.34-6.44,24.27,24.27,0,0,1-3.85-8.82,33.19,33.19,0,0,1-.61-9.35,46.81,46.81,0,0,1,1.6-9c.37-1.47.9-2.86,1.35-4.29s1-2.8,1.6-4.18a115.65,115.65,0,0,1,8.11-15.78,174.68,174.68,0,0,1,10-14.48c3.56-4.64,7.35-9.1,11.24-13.45A243.48,243.48,0,0,1,631.83,320c-8.14,8.29-15.88,16.93-23.12,25.94q-5.46,6.74-10.43,13.81c-3.32,4.7-6.43,9.54-9.25,14.52a117.28,117.28,0,0,0-7.44,15.35,57.25,57.25,0,0,0-4,16.12,28.21,28.21,0,0,0,.55,8,19.32,19.32,0,0,0,3.09,7,16.47,16.47,0,0,0,12.93,6.81,16.2,16.2,0,0,0,7.34-1.44,14.77,14.77,0,0,0,5.74-4.64c3-4,3.81-9.53,3.1-14.85S607.63,396,605.3,390.8a152.52,152.52,0,0,0-8.2-15.05c-3-4.92-6.18-9.71-9.52-14.42s-6.76-9.37-10.31-13.94C570.2,338.22,562.79,329.29,555.17,320.53Z"/></g></g></svg>