<svg id="Layer_1" data-name="Layer 1" xmlns="http://www.w3.org/2000/svg" viewBox="0 0 1333.03 1007.38"><defs><style>.cls-1,.cls-3{fill:#243168;}.cls-1{stroke:#8f261d;stroke-miterlimit:10;stroke-width:29px;}.cls-2{fill:#e7e518;}</style></defs><polyline class="cls-1" points="666.46 14.5 186.7 14.5 19.14 198.28 666.46 992.88 666.57 992.88 1313.89 198.28 1146.33 14.5 666.57 14.5"/><path class="cls-2" d="M438,451.53v418l59.9,73.58V829.91h31.89s70,7.49,82.72-102.22c0,0,3-28,2.64-48.88s0-91.5,0-91.5,2.6-71.41-31.07-112.48c0,0-14.06-20.7-45.51-23.3S438,451.53,438,451.53Z" transform="translate(-197.54 -422.5)"/><path class="cls-3" d="M497.89,536.3V742.07h30s26.53,2.23,27.2-43.69V588.69s2.23-52.38-26.53-52.39Z" transform="translate(-197.54 -422.5)"/><polygon class="cls-2" points="473.72 29.15 418.27 665.17 467.64 725.73 478.31 597.7 551.88 597.7 573.52 855.87 640.87 938.54 561.67 29.15 473.72 29.15"/><polygon class="cls-3" points="514.69 154.01 486 503.69 543.97 503.69 514.69 154.01"/><polygon class="cls-2" points="608.17 30.36 666.45 970.23 724.38 899.22 755.14 358.73 782.91 827.1 855.9 737.5 898.97 30.36 846.74 30.36 815.6 581.79 785.58 30.36 728.05 30.36 699.15 577.74 667.06 30.36 608.17 30.36"/><path class="cls-2" d="M1130.87,451.53l.61,612.67,59.29-73V829.91h31.89s70,7.49,82.72-102.22c0,0,3-28,2.64-48.88s0-91.5,0-91.5,2.6-71.41-31.07-112.48c0,0-14.06-20.7-45.51-23.3S1130.87,451.53,1130.87,451.53Z" transform="translate(-197.54 -422.5)"/><path class="cls-3" d="M1190.74,536.3V742.07h30s26.53,2.23,27.2-43.69V588.69s2.23-52.38-26.53-52.39Z" transform="translate(-197.54 -422.5)"/></svg>