<?xml version="1.0" encoding="utf-8"?>
<!-- Generator: Adobe Illustrator 24.0.3, SVG Export Plug-In . SVG Version: 6.00 Build 0)  -->
<svg version="1.1" id="Layer_1" xmlns="http://www.w3.org/2000/svg" xmlns:xlink="http://www.w3.org/1999/xlink" x="0px" y="0px"
	 viewBox="0 0 612 792" style="enable-background:new 0 0 612 792;" xml:space="preserve">
<style type="text/css">
	.st0{fill:url(#SVGID_1_);}
	.st1{fill:#3C8A97;}
	.st2{fill:#64DCDF;}
	.st3{fill:#357B7D;}
</style>
<g id="Layer_2_1_">
	
		<radialGradient id="SVGID_1_" cx="306" cy="396" r="353.8729" gradientTransform="matrix(1 0 0 -1 0 792)" gradientUnits="userSpaceOnUse">
		<stop  offset="0" style="stop-color:#65FFE8"/>
		<stop  offset="1" style="stop-color:#46A1B4"/>
	</radialGradient>
	<rect class="st0" width="612" height="792"/>
</g>
<g id="Layer_3">
	<polygon class="st1" points="20,0 168.8,141 51.6,0 	"/>
	<polygon class="st1" points="388.4,0 356.7,103.8 408.8,0 	"/>
	<polygon class="st1" points="612,70.5 440.4,232.1 612,113.1 	"/>
	<polygon class="st1" points="612,304.7 421.8,317.7 612,282.4 	"/>
	<path class="st1" d="M155.8,792c0,0,14.9-124.6,27.9-182.2c0,0-39.1,137.5-61.4,182.2H155.8z"/>
	<path class="st1" d="M447.9,792c0,0-39.1-128.3-52.1-161.8c0,0,65.1,144.9,76.3,161.8H447.9z"/>
	<polygon class="st1" points="612,673 472.1,544.7 612,643.3 	"/>
	<polygon class="st1" points="612,500 490.7,472.1 612,472.1 	"/>
	<polygon class="st2" points="104.8,0 158.3,51.9 122.3,0 	"/>
	<polygon class="st2" points="557.2,0 526.2,51.9 570.3,0 	"/>
	<polygon class="st2" points="612,232.1 516.9,258.4 612,245.2 	"/>
	<polygon class="st2" points="0,215.3 131.6,258.4 0,185.3 	"/>
	<polygon class="st2" points="612,434.1 536.4,434.1 612,421.3 	"/>
	<polygon class="st2" points="0,396 65.8,396 0,409.6 	"/>
	<polygon class="st2" points="498.6,792 481.6,766.8 510.3,792 	"/>
	<polygon class="st2" points="612,602.5 501.2,544.7 612,583 	"/>
	<polygon class="st1" points="0,427.7 183.7,393.1 0,464.2 	"/>
	<polygon class="st3" points="0,740.8 76.1,673 0,756.6 	"/>
	<polygon class="st3" points="0,630.2 105.2,521.7 0,655 	"/>
	<polygon class="st3" points="0,508.5 44.5,486.1 0,521.7 	"/>
	<polygon class="st3" points="612,686.7 556.6,640.5 612,678.4 	"/>
	<polygon class="st3" points="612,514.2 551.3,507.9 612,507.9 	"/>
	<polygon class="st3" points="612,330.5 541.4,332.7 612,323.1 	"/>
	<polygon class="st3" points="612,215.5 473.5,258.4 612,223.9 	"/>
	<polygon class="st3" points="612,153.9 541.4,194.2 612,164 	"/>
	<polygon class="st3" points="612,41.5 542.7,109.4 612,48.4 	"/>
	<polygon class="st3" points="0,20.9 102.3,103.8 0,11.6 	"/>
	<polygon class="st3" points="211.9,0 227.9,54 223.8,0 	"/>
	<polygon class="st3" points="0,228.2 180.3,295.6 0,221.8 	"/>
	<polygon class="st3" points="0,347.5 78.9,354.3 0,338.9 	"/>
</g>
</svg>
