<svg id="Layer_1" data-name="Layer 1" xmlns="http://www.w3.org/2000/svg" viewBox="0 0 147.22 159.73"><defs><style>.cls-1{fill:#34b04d;}.cls-2{fill:#4cb550;}.cls-3{fill:#51b662;}.cls-4{fill:#4cb65e;}.cls-5{fill:#7dc385;}.cls-6{fill:#7ec388;}.cls-7{fill:#89c48f;}.cls-8{fill:#5ebc6a;}.cls-9{fill:#48b64f;}.cls-10{fill:#5fbdbc;}.cls-11{fill:#7ec385;}</style></defs><title>tt</title><path class="cls-1" d="M56.72,158.39c-6.66-4.15-13.38-8.21-20-12.47-7.47-4.83-14.83-9.83-22.24-14.76.38-4.27-.34-9,1.33-12.72C21.56,105.77,21,92.75,19.76,79.5c-.25-2.62-.46-6,.9-7.9,5.67-7.87,12-15.26,18-22.94C39.89,47,41.21,45,41.4,43c.49-5.15,3.07-8,8-9.11a27,27,0,0,0,4.22-1.46c4.25-1.73,8.11-3.87,8.94-9l4.93-.08c6.11,1.85,12.06,4.11,18.75,2.19,3.77-1.09,7.8-.2,10.2,3.37,3.39,5,8,6.28,13.62,5.49a36.79,36.79,0,0,1,4.46-.07l2,0v2c0,2.15-.61,4.54.13,6.39,1.11,2.75,3.17,5.11,4.82,7.64,1.51,3.33,2.28,7.38,4.68,9.84,4.88,5,6.35,10.16,4.37,16.8-.87,2.93-.67,6.17-1,9.27.8,7.25-1.91,13.66-5,19.86-2.25,4.44-2.72,9.77-9.25,11.72-7.42,2.23-13.5,8.31-21.63,9-3.09.28-6.84,2.46-9.24-1.69,8.77-7.29,12.86-16.43,12-28-.53-6.79,0-13.65-.1-20.47,0-2.43.45-3.93,3.25-3.52a19.51,19.51,0,0,0,13.84,4.5c3.08-.18,4-1.75,3.34-4.12-1-3.89,3-9-2.8-11.66-.31-.14-.9.34-1.35.54l.08-.25c-.5-5.75-2-6.74-10.93-7L93.39,42.07l-1-.73.1.07c-1.12-2.11.85-6.38-4.07-5.82h-10l-1.85,1.84,0,5.92c-.1,2.32-.29,4.65-.29,7,0,14.8.13,29.6-.07,44.4-.15,11.39-9.67,16.7-19.61,11.91-.44-.76-.09-1.37-.53-2.13,1.42-10.66,3.46-12.76,14.16-15A3.54,3.54,0,0,0,72.56,87c.23-4.42.1-8.85.1-13.77l-4.84.29-.13-.35c-.11-3,.29-6.37-4.45-5.75C46.62,69.57,36.93,80.15,36.69,96.45c-.06,4.33,3,8.72,4.64,13.08.41,5,5.29,10.23,7.93,12l3.1,3a26.24,26.24,0,0,0,4.19,3c6.35,2.94,13,2.77,19.73,1.65.56,4.39.9,8.81,1.73,13.14,1.18,6.17-1.21,10-7,12.33-2.08.85-5.59,1.4-5.61,5.07l-3-.43C60.81,157.32,59,156.65,56.72,158.39Z"/><path class="cls-2" d="M84.37,125.25c2.4,4.15,6.15,2,9.24,1.69,8.13-.74,14.21-6.82,21.63-9,6.53-2,7-7.28,9.25-11.72,3.14-6.2,5.85-12.61,5-19.85,1,1.43,2.69,2.81,2.8,4.31.38,4.89.16,9.82.18,14.74l0,6.46c0,4.52.9,9.18-3.87,12.44-2.12,1.45-3.34,4.16-5.25,6-1.69,1.63-3.86,2.76-5.6,4.35-.7.64-.82,1.91-1.2,2.88l.06-.06-1,2,0,0c-4.19,1.58-4.26,1.68-2.87,4-3.41,8.34-10.49,13.06-18.48,14.58-9.37,1.79-19.19,1.21-28.81,1.66,0-3.67,3.53-4.22,5.61-5.07,5.75-2.36,8.14-6.16,7-12.33-.83-4.33-1.17-8.75-1.73-13.14l.12.11h8.9l0-.67L79.91,128Z"/><path class="cls-3" d="M116.57,137.52c.38-1,.5-2.24,1.2-2.88,1.74-1.59,3.91-2.72,5.6-4.35,1.91-1.86,3.13-4.57,5.25-6,4.77-3.26,3.83-7.92,3.87-12.44l0-6.46c1.27-.46,3.44-.66,3.68-1.45q2.94-9.63,5.23-19.46c1.46-6.23-1.82-11.49-3.86-17-2.31-6.28-4.24-12.71-6.12-19.14-3.41-11.63-6.66-23.32-10-35l9.3-.12,1.58.51c.75.87,1.49,1.75,2.23,2.62a47.54,47.54,0,0,1,11.56,26.86A284,284,0,0,1,147,79.39c-.28,10.44-1.64,20.86-2.77,31.27a120.91,120.91,0,0,1-2.48,14.12c-2.12,9.19-9.12,12.46-17.22,12.63C121.9,137.47,119.23,137.49,116.57,137.52Z"/><path class="cls-4" d="M62.54,23.45c-.83,5.14-4.69,7.28-8.94,9a27,27,0,0,1-4.22,1.46c-4.91,1.11-7.49,4-8,9.11-.19,2-1.51,4-2.78,5.63-5.95,7.68-12.29,15.07-18,22.94-1.36,1.89-1.15,5.28-.9,7.9,1.25,13.25,1.8,26.27-3.92,38.94-1.67,3.69-.95,8.45-1.33,12.72-8.86-3.81-11.39-11-10.72-20,.35-4.6.45-9.21.66-13.81C5.17,95.93,6,94.49,6.6,93,12,80.25,16.74,67.37,15.18,53.14l.21.19-.19-.22L16,52.05l.28-.1,1.22-.17,5-5.37c.62-2,1.25-4.06,1.87-6.09h0c.33-.7.65-1.39,1-2.09a2.77,2.77,0,0,1,.24-.79c.12-.42.25-.83.37-1.25l.16-.27,5.24-2.6c.81-.1,1.94.11,2.37-.34C41.65,24.68,51.56,22.47,62.54,23.45Z"/><path class="cls-5" d="M15.18,53.14C16.74,67.37,12,80.25,6.6,93c-.64,1.51-1.43,3-2.15,4.42-4.93-11.19-7-22.52.31-33.4C7.51,59.89,11.66,56.73,15.18,53.14Z"/><path class="cls-6" d="M130.78,13.19l-9.3.12c-13.24-2.11-26.2-7.11-40-3.86-.69-.42-1.38-.84-2-1.28C65.85-.59,52.33-1.53,41.28,11.92c-1.81,2.2-4.5,3.67-6.79,5.47l-.08-1.15C44.82.36,62.61-5.14,79.42,5.45c3.38,2.13,6.19,2.52,9.71,1,9.46-4.14,19.31-5.39,29-1.49C122.71,6.78,126.58,10.38,130.78,13.19Z"/><path class="cls-7" d="M34.41,16.24c0,.39.05.77.08,1.15-.34,2.34-.67,4.67-1,7-.71,3-1.43,5.94-2.14,8.91l-5.24,2.6Z"/><path class="cls-3" d="M112.73,143.49c-1.39-2.33-1.32-2.43,2.87-4Z"/><path class="cls-2" d="M56.72,158.39c2.24-1.74,4.09-1.07,5.73.91Z"/><path class="cls-7" d="M24.36,40.32c-.62,2-1.25,4.06-1.87,6.09C23.11,44.38,23.74,42.35,24.36,40.32Z"/><path class="cls-6" d="M134.59,16.32c-.74-.87-1.48-1.75-2.23-2.62C133.11,14.57,133.85,15.45,134.59,16.32Z"/><path class="cls-7" d="M25.33,38.22c-.32.7-.64,1.39-1,2.09C24.68,39.61,25,38.92,25.33,38.22Z"/><path class="cls-3" d="M115.58,139.5l1-2Z"/><path class="cls-7" d="M25.94,36.18c-.12.42-.25.83-.37,1.25C25.69,37,25.82,36.6,25.94,36.18Z"/><path class="cls-5" d="M17.51,51.78,16.29,52Z"/><path class="cls-5" d="M16,52.05l-.81,1.06Z"/><path class="cls-8" d="M31.34,33.31c.71-3,1.43-5.94,2.14-8.91.32-.08.77,0,1-.24,9.79-10.86,22.65-11.39,35.91-10.9,4.07.15,8.8,1.36,11.18-3.81,13.76-3.25,26.72,1.75,40,3.86,3.31,11.66,6.56,23.35,10,35,1.88,6.43,3.81,12.86,6.12,19.14,2,5.54,5.32,10.8,3.86,17q-2.28,9.81-5.23,19.46c-.24.79-2.41,1-3.68,1.45,0-4.92.2-9.85-.18-14.74-.11-1.5-1.82-2.88-2.8-4.31.28-3.11.08-6.35,1-9.28,2-6.64.51-11.8-4.37-16.8-2.4-2.46-3.17-6.51-4.68-9.84,2.14-5.33-.3-9.69-3-14l-2-2-2,0c-1.49-2.06-2.64-4.55-4.55-6.1-2.65-2.13-6-3.32-8.82-5.33-10.39-7.55-21.23-6.51-32.29-2-.68.28-.92,1.62-1.37,2.46l-4.93.08c-11-1-20.89,1.23-28.83,9.52C33.28,33.42,32.15,33.21,31.34,33.31Z"/><path class="cls-4" d="M67.47,23.37c.45-.84.69-2.18,1.37-2.46,11.06-4.5,21.9-5.54,32.29,2,2.77,2,6.17,3.2,8.82,5.33,1.91,1.55,3.06,4,4.55,6.1a36.79,36.79,0,0,0-4.46.07c-5.62.79-10.23-.47-13.62-5.49C94,25.36,90,24.47,86.22,25.56,79.53,27.48,73.58,25.22,67.47,23.37Z"/><path class="cls-9" d="M118.47,36.39c2.67,4.32,5.11,8.68,3,14-1.65-2.53-3.71-4.89-4.82-7.64-.74-1.85-.13-4.24-.13-6.39Z"/><path class="cls-10" d="M78.5,35.59l-1.85,1.84Z"/><path class="cls-4" d="M118.47,36.39l-2,0c0-.66,0-1.32,0-2Z"/><path class="cls-10" d="M93.39,42.07l-1-.73Z"/><path class="cls-1" d="M76.4,129.3,79.91,128l5.37.62,0,.67Z"/><path class="cls-11" d="M81.52,9.45c-2.38,5.17-7.11,4-11.18,3.81-13.26-.49-26.12,0-35.91,10.9-.18.2-.63.16-1,.24.34-2.34.67-4.67,1-7,2.29-1.8,5-3.27,6.79-5.47C52.33-1.53,65.85-.59,79.47,8.17,80.14,8.61,80.83,9,81.52,9.45Z"/><path class="cls-1" d="M81.54,41.43q-.14,28.91-.28,57.82c0,5.69-1.08,11-6.53,14.09-6.3,3.52-15.36,1.4-18-6.71,9.94,4.79,19.46-.52,19.61-11.91.2-14.8,0-29.6.07-44.4,0-2.32.19-4.65.29-7Z"/><path class="cls-1" d="M67.69,73.15c-16.92,1.73-28,14.23-26.75,31.27.12,1.63.05,8.29,1.47,12.75-4.82-3.38-5.78-16.39-5.72-20.72.24-16.3,9.93-26.88,26.55-29C68,66.78,67.58,70.17,67.69,73.15Z"/><path class="cls-1" d="M81.54,41.43,76.7,43.35c0-2,0-4,0-5.92l1.85-1.84h10c.33,1.88.67,3.77,1,5.65Z"/><path class="cls-1" d="M112.6,62.27c-4.48-1.05-9.14-1.83-10.93-7C110.56,55.53,112.1,56.52,112.6,62.27Z"/><path class="cls-1" d="M89.46,41.24c-.33-1.88-.67-3.77-1-5.65,4.92-.56,3,3.71,4.07,5.82Z"/></svg>