<svg id="Layer_1" data-name="Layer 1" xmlns="http://www.w3.org/2000/svg" viewBox="0 0 138.26 150.93"><defs><style>.cls-1{fill:#59c3ef;}.cls-2{fill:#b7e4f4;}.cls-3{fill:#29c0ee;}.cls-4{fill:#86d4f2;}.cls-5{fill:#d8f0f7;}.cls-6{fill:#87d4f1;}.cls-7{fill:#86d4f1;}.cls-8{fill:#b6e3f3;}.cls-9{fill:#15aaca;}.cls-10{fill:#31bfeb;}.cls-11{fill:#3abfe8;}.cls-12{fill:#2ac0ed;}.cls-13{fill:#9ddbef;}.cls-14{fill:#2ebeeb;}.cls-15{fill:#69c3e0;}</style></defs><title>tw</title><path class="cls-1" d="M12.22,122.84C-.23,119-1.81,108.35,1.5,99.25A29.11,29.11,0,0,0,2.37,95c1.63-1.35,3.19-2.8,4.92-4,3.67-2.58,6.31-5.87,6.9-10.38.53-4,1.21-8.21.82-12.22-.34-3.56-2.07-7-3.19-10.46L15.31,49c3.69-.12,6.9-1.57,8.83-4.61A73.26,73.26,0,0,0,31,31.48c1.38-3.59,1.53-7.65,2.22-11.51,9.23,1,17.42-1.81,25.71-5.71,10.65-5,21.84-5,32.74-.07,8.65,3.93,15.12,10.64,21.64,17.29A56.51,56.51,0,0,0,119,36.06a39.41,39.41,0,0,0,.88,4.35c1.72,5.33,4,10.53,5.24,16,2,8.8,3.66,17.7,5,26.63,1.16,7.94,0,15.28-8,19.72-.81.45-1.3,1.46-1.93,2.21-1.5,1-3.09,1.93-4.49,3.07q-10.59,8.59-21.1,17.3c-5.84,4.84-11.62,9.75-17.42,14.64l-4,2.92a46.84,46.84,0,0,1-2.91-5.51c-2.57-6.88-6.76-12.09-14.18-13.92-3.77-.92-7.64-1.47-12-2.28l2.18-7.3,6.26.81a6.25,6.25,0,0,0-.46.79.49.49,0,0,0,.16.36c5.86-.06,11.31,2.73,17.55,1.42,4.83-1,9.77-1.22,14.25-3.64,6.26-3.37,12.76-6.33,18.78-10.07,6.72-4.17,12.31-9.53,14.34-17.7,1.82-7.32.57-14.52-1.47-21.4-1.1-3.71-1.75-7-.47-10.54a8.19,8.19,0,0,1,0-1c.21-.45.67-1.23.57-1.31-2.37-1.93-1.89-4.73-2-7.8L108.23,45c-2.49-3.65-4.63-7.6-7.54-10.89-8.38-9.46-19.6-13.06-31.76-14-7-.56-11.56,2.63-13.76,8.84l-2,1.07c-4.67,3.17-9.37,6.31-14,9.52A7.27,7.27,0,0,0,36,46.25L32.56,51l-1.32,1h.09c-.78.46-2,.75-2.26,1.43-1.41,3.31-2.38,6.83-3.89,10.1-2.08,4.51.62,9.91-2.83,14.19-.4.5.36,2.1.81,3.08.52,1.18,1.55,2.17,1.91,3.37,2.14,7.08,4,14.22,3.15,21.74-.44,5.51-1.73,6.19-6.29,3.16-1.65-1.1-3.17-2.4-4.71-3.65-3-2.43-5.35-1.74-7,1.75s.34,6.26,1.82,8.75S14.2,120.48,12.22,122.84Z"/><path class="cls-2" d="M120.18,104.93c.63-.75,1.12-1.76,1.93-2.21,8-4.44,9.15-11.78,8-19.72-1.3-8.93-2.94-17.83-5-26.63-1.25-5.43-3.52-10.63-5.24-16a39.41,39.41,0,0,1-.88-4.35c.43-9.54.72-19.06-3.92-27.89l8.09.8c.36,10.31.94,20.62,4,30.53,1.26,4,2.23,8.57,6.89,10.51,1,4.64,2,9.3,3.15,13.91,2,7.76.6,15.39-.51,23.09-1.38,9.61-2.65,19.25-3.38,28.93-.29,3.84-1.81,5.8-5.12,6.92-4,1.37-8.13,2.69-12.19,4-6.66,2.22-11.16,6.6-14.06,13-1.39,3.09-3.89,5.12-7.66,6.32-12.5,4-25.33,4.3-38.19,4.66-1.34,0-2.71-1.1-4.06-1.7,1.23-.42,2.45-.89,3.7-1.26,5.77-1.72,11.55-3.41,17.33-5.11q2-1.47,4-2.92c10.23.19,18.88-3.64,26.13-10.66a65,65,0,0,0,8.83-10C115.2,114.79,117.53,109.75,120.18,104.93Z"/><path class="cls-3" d="M73.13,142.86c-5.78,1.7-11.56,3.39-17.33,5.11-1.25.37-2.47.84-3.7,1.26-1.3-.63-2.82-1-3.85-1.94-4.63-4.14-10-6.49-15.88-8.56-6.55-2.32-13.55-4.69-16.27-12.51-.49-1.41-2.55-2.27-3.88-3.38,2-2.36,1.32-4.32-.19-6.87s-3.48-5.28-1.82-8.75,4-4.18,7-1.75c1.54,1.25,3.06,2.55,4.71,3.65,4.56,3,5.85,2.35,6.29-3.16l2.21-.08,15.81,8-2.18,7.3c4.34.81,8.21,1.36,12,2.28,7.42,1.83,11.61,7,14.18,13.92A46.84,46.84,0,0,0,73.13,142.86Z"/><path class="cls-4" d="M115.1,8.17c4.64,8.83,4.35,18.35,3.92,27.89a56.51,56.51,0,0,1-5.72-4.58c-6.52-6.65-13-13.36-21.64-17.29-10.9-4.95-22.09-5-32.74.07C50.63,18.16,42.44,21,33.21,20l-.08-.06-.08-7.11C39.77,2.8,50.73-1,60,4c4.38,2.38,8.72,2.45,13.45,1.21C80,3.5,86.71,2.38,93.29.74c8.07-2,14.72.13,20.27,6.17A13.61,13.61,0,0,0,115.1,8.17Z"/><path class="cls-5" d="M134.12,50c-4.66-1.94-5.63-6.47-6.89-10.51-3.1-9.91-3.68-20.22-4-30.53,3.26,1,6.62,1.71,9.76,3s3.29,4.5,3.16,7.18c-.38,7.67-1.2,15.32-1.77,23C134.14,44.73,134.19,47.38,134.12,50Z"/><path class="cls-6" d="M11.82,57.89c1.12,3.48,2.85,6.9,3.19,10.46.39,4-.29,8.17-.82,12.22C13.6,85.08,11,88.37,7.29,91,5.56,92.16,4,93.61,2.37,95c-.32-2.27-.52-4.57-1-6.81C.26,82.27,2.48,77.1,4.81,72,7,67.23,9.48,62.59,11.82,57.89Z"/><path class="cls-7" d="M33.21,20c-.69,3.86-.84,7.92-2.22,11.51a73.26,73.26,0,0,1-6.85,12.91c-1.93,3-5.14,4.49-8.83,4.61,1.31-4.7,2.3-9.52,4-14.06,1.57-4.13,3.94-8,6-11.92l7.83-3.11Z"/><path class="cls-8" d="M33.13,19.91,25.3,23c-.15-6.8,1.89-9.49,7.75-10.22Z"/><path class="cls-9" d="M91.14,44a19.4,19.4,0,0,0-14.08,3.68c-4,3-6.8,6.73-6.08,12.21a47.42,47.42,0,0,1,0,5.54C60.84,63.91,51.77,61.1,43.86,55.08c.68-.53,1.65-.91,2-1.6a37.53,37.53,0,0,0,1-3.92C49,43,51.09,36.49,53.21,30l2-1.07c5.17.94,10.66,1.08,15.45,3C78.41,35,85.75,39.23,93.28,43l.16,1.29-1.07-.13Z"/><path class="cls-10" d="M62.14,114.16c17-1.1,27.78-11.26,36.4-24.77C102,84,103.82,78.08,105.1,72c1.48-7.12,3.64-13.76,10.08-18.07-1.28,3.59-.63,6.83.47,10.54,2,6.88,3.29,14.08,1.47,21.4-2,8.17-7.62,13.53-14.34,17.7-6,3.74-12.52,6.7-18.78,10.07-4.48,2.42-9.42,2.63-14.25,3.64-6.24,1.31-11.69-1.48-17.55-1.42a.49.49,0,0,1-.16-.36,6.25,6.25,0,0,1,.46-.79l6.44.16Z"/><path class="cls-11" d="M31.33,52.05c.35,5.89,2.63,11.63,7.6,18.82L32.11,69c.16,9,6.2,13.13,12.84,17.34l-6.46.84C40.15,95,47.26,95.44,53.1,98.54c-1,1.22-1.68,2.6-2.77,3.19a27.58,27.58,0,0,1-17.68,3c-.67-.11-1.48.71-2.22,1.1l-2.21.08c.86-7.52-1-14.66-3.15-21.74-.36-1.2-1.39-2.19-1.91-3.37-.45-1-1.21-2.58-.81-3.08,3.45-4.28.75-9.68,2.83-14.19,1.51-3.27,2.48-6.79,3.89-10.1C29.36,52.8,30.55,52.51,31.33,52.05Z"/><path class="cls-12" d="M93.28,43c-7.53-3.77-14.87-8-22.66-11.12-4.79-1.91-10.28-2.05-15.45-3,2.2-6.21,6.72-9.4,13.76-8.84,12.16,1,23.38,4.57,31.76,14,2.91,3.29,5,7.24,7.54,10.89a20.5,20.5,0,0,1-2.71,1.09c-3.21-5.63-3.85.07-5.48,1.2l-.07-.1c-.18-4.51-3.41-3-5.86-3l-.18,0Z"/><path class="cls-13" d="M120.18,104.93c-2.65,4.82-5,9.86-8.05,14.4a65,65,0,0,1-8.83,10c-7.25,7-15.9,10.85-26.13,10.66,5.8-4.89,11.58-9.8,17.42-14.64q10.5-8.72,21.1-17.3C117.09,106.86,118.68,106,120.18,104.93Z"/><path class="cls-14" d="M53.21,30C51.09,36.49,49,43,46.86,49.56a37.53,37.53,0,0,1-1,3.92c-.31.69-1.28,1.07-2,1.6-1.94-1.25-4.18-2.22-5.72-3.84C37,50,36.69,48,36,46.25a7.27,7.27,0,0,1,3.19-6.77C43.84,36.27,48.54,33.13,53.21,30Z"/><path class="cls-15" d="M100,47.26c1.63-1.13,2.27-6.83,5.48-1.2A20.5,20.5,0,0,0,108.23,45l5.61-1.19c.06,3.07-.42,5.87,2,7.8.1.08-.36.86-.57,1.31l-8,1,0,0,4.89-7.35-.47-.66c-2.49,1-5,2-7.47,3.08C102.08,50,100.7,49.53,100,47.26Z"/><path class="cls-11" d="M32.56,51l-1.32,1Z"/><path class="cls-15" d="M94.11,44.2c2.45,0,5.68-1.55,5.86,3Z"/><path class="cls-1" d="M62.14,114.16l-3.2.66Z"/><path class="cls-15" d="M93.28,43l.65,1.24-.24.08-.25,0Z"/><path class="cls-15" d="M91.14,44l1.23.12Z"/><path class="cls-15" d="M107.18,53.94l-.4.47c0-.09,0-.21.07-.25a1.62,1.62,0,0,1,.37-.19Z"/></svg>